<svg xmlns="http://www.w3.org/2000/svg" xmlns:xlink="http://www.w3.org/1999/xlink" width="500" zoomAndPan="magnify" viewBox="0 0 375 374.999991" height="500" preserveAspectRatio="xMidYMid meet" version="1.0"><defs><clipPath id="b96692afea"><path d="M 63.839844 63.839844 L 311.339844 63.839844 L 311.339844 311.332031 L 63.839844 311.332031 Z M 63.839844 63.839844 " clip-rule="nonzero"/></clipPath></defs><rect x="-37.5" width="450" fill="#ffffff" y="-37.499999" height="449.999989" fill-opacity="1"/><rect x="-37.5" width="450" fill="#ffffff" y="-37.499999" height="449.999989" fill-opacity="1"/><rect x="-37.5" width="450" fill="#000000" y="-37.499999" height="449.999989" fill-opacity="1"/><g clip-path="url(#b96692afea)"><path fill="#cb6ce6" d="M 302.328125 82.519531 L 296.980469 87.859375 L 296.980469 145.4375 C 296.980469 155.082031 293.21875 164.148438 286.398438 170.96875 L 163.617188 293.777344 C 149.519531 307.851562 126.585938 307.851562 112.496094 293.773438 L 81.394531 262.675781 C 67.320312 248.582031 67.320312 225.652344 81.390625 211.558594 L 204.199219 88.777344 C 211.019531 81.949219 220.089844 78.183594 229.730469 78.183594 L 287.308594 78.183594 L 292.652344 72.839844 C 295.320312 70.175781 299.65625 70.175781 302.328125 72.839844 C 305 75.511719 305 79.847656 302.328125 82.519531 Z M 307.28125 67.890625 C 304.660156 65.273438 301.1875 63.839844 297.488281 63.839844 C 293.789062 63.839844 290.3125 65.28125 287.703125 67.890625 L 284.410156 71.183594 L 229.730469 71.183594 C 218.21875 71.183594 207.394531 75.667969 199.246094 83.820312 L 76.433594 206.609375 C 59.636719 223.433594 59.636719 250.804688 76.441406 267.628906 L 107.546875 298.730469 C 115.683594 306.855469 126.519531 311.332031 138.058594 311.332031 C 149.589844 311.332031 160.425781 306.859375 168.566406 298.730469 L 291.351562 175.921875 C 299.5 167.777344 303.988281 156.953125 303.988281 145.441406 L 303.988281 90.761719 L 307.28125 87.46875 C 309.890625 84.859375 311.339844 81.378906 311.339844 77.683594 C 311.339844 73.980469 309.898438 70.507812 307.28125 67.890625 " fill-opacity="1" fill-rule="nonzero"/></g><path fill="#cb6ce6" d="M 200.097656 153.683594 L 199.578125 154.203125 L 210.277344 164.894531 L 210.792969 164.382812 C 210.792969 164.378906 210.792969 164.378906 210.796875 164.378906 C 217.617188 157.039062 207.449219 146.855469 200.097656 153.683594 " fill-opacity="1" fill-rule="nonzero"/><path fill="#cb6ce6" d="M 272.453125 143.5 C 269.777344 146.171875 265.449219 146.171875 262.777344 143.5 L 256.902344 137.621094 L 251.03125 143.492188 L 256.910156 149.363281 C 259.582031 152.035156 259.582031 156.367188 256.910156 159.039062 C 254.238281 161.707031 249.90625 161.707031 247.234375 159.039062 L 223.921875 135.730469 C 207.855469 118.402344 231.792969 94.4375 249.132812 110.507812 L 272.453125 133.824219 C 275.125 136.496094 275.125 140.824219 272.453125 143.5 Z M 236.527344 176.582031 L 221.960938 176.582031 L 225.828125 180.445312 C 231.996094 187.089844 222.796875 196.296875 216.148438 190.121094 L 185.066406 159.039062 C 182.394531 156.367188 182.394531 152.035156 185.066406 149.363281 L 190.246094 144.183594 C 205.054688 129.425781 230.0625 142.578125 226.648438 162.902344 L 236.527344 162.902344 C 245.589844 163.234375 245.597656 176.246094 236.527344 176.582031 Z M 194.132812 212.140625 L 167.886719 185.890625 L 166.25 187.53125 C 159.605469 193.703125 150.402344 184.507812 156.574219 177.855469 L 169.523438 164.90625 C 176.167969 158.734375 185.371094 167.933594 179.199219 174.582031 L 177.558594 176.21875 L 203.804688 202.46875 C 209.976562 209.109375 200.78125 218.3125 194.132812 212.140625 Z M 183.28125 231.925781 C 181.835938 235.417969 177.839844 237.085938 174.347656 235.644531 L 167.511719 232.832031 L 170.324219 239.667969 C 171.765625 243.160156 170.101562 247.160156 166.605469 248.597656 C 163.113281 250.039062 159.117188 248.367188 157.675781 244.878906 L 149.699219 225.492188 L 130.3125 217.511719 C 126.820312 216.078125 125.152344 212.078125 126.589844 208.585938 C 128.03125 205.089844 132.03125 203.425781 135.523438 204.863281 L 142.359375 207.675781 L 139.542969 200.839844 C 138.101562 197.347656 139.769531 193.351562 143.265625 191.914062 C 146.757812 190.476562 150.757812 192.140625 152.195312 195.632812 L 160.171875 215.015625 L 179.554688 222.992188 C 183.050781 224.4375 184.71875 228.429688 183.28125 231.925781 Z M 153.296875 262.652344 L 142.933594 273.011719 C 140.261719 275.683594 135.933594 275.683594 133.261719 273.011719 L 102.175781 241.929688 C 99.507812 239.257812 99.507812 234.925781 102.175781 232.257812 L 112.539062 221.894531 C 119.179688 215.722656 128.386719 224.917969 122.210938 231.566406 L 116.6875 237.09375 L 122.558594 242.960938 L 124.628906 240.890625 C 127.296875 238.21875 131.628906 238.21875 134.300781 240.890625 C 136.96875 243.5625 136.96875 247.890625 134.300781 250.566406 L 132.230469 252.632812 L 138.097656 258.503906 L 143.621094 252.976562 C 146.292969 250.304688 150.628906 250.304688 153.296875 252.976562 C 155.96875 255.648438 155.96875 259.980469 153.296875 262.652344 Z M 270.671875 104.5 C 268 101.828125 268 97.492188 270.671875 94.824219 L 273.628906 91.867188 L 229.730469 91.867188 C 223.742188 91.867188 218.113281 94.203125 213.871094 98.449219 L 91.074219 221.222656 C 82.328125 229.988281 82.328125 244.246094 91.070312 253 L 122.160156 284.09375 C 130.941406 292.859375 145.199219 292.828125 153.9375 284.101562 L 276.726562 161.292969 C 280.96875 157.054688 283.300781 151.425781 283.300781 145.4375 L 283.300781 101.539062 L 280.347656 104.5 C 277.675781 107.171875 273.339844 107.171875 270.671875 104.5 " fill-opacity="1" fill-rule="nonzero"/><path fill="#cb6ce6" d="M 233.597656 120.1875 C 231.980469 121.800781 231.980469 124.4375 233.597656 126.050781 L 241.355469 133.8125 L 247.222656 127.945312 L 239.460938 120.1875 C 237.84375 118.566406 235.210938 118.566406 233.597656 120.1875 " fill-opacity="1" fill-rule="nonzero"/></svg>