<svg xmlns="http://www.w3.org/2000/svg" xmlns:xlink="http://www.w3.org/1999/xlink" width="500" zoomAndPan="magnify" viewBox="0 0 375 374.999991" height="500" preserveAspectRatio="xMidYMid meet" version="1.0"><rect x="-37.5" width="450" fill="#ffffff" y="-37.499999" height="449.999989" fill-opacity="1"/><rect x="-37.5" width="450" fill="#ffffff" y="-37.499999" height="449.999989" fill-opacity="1"/><rect x="-37.5" width="450" fill="#000000" y="-37.499999" height="449.999989" fill-opacity="1"/><path fill="#1c2122" d="M 100.425781 170.601562 C 100.3125 170.707031 100.175781 170.753906 100.023438 170.746094 L 87.351562 170.746094 C 87.230469 170.746094 87.167969 170.804688 87.167969 170.929688 L 87.167969 178.710938 C 87.167969 178.832031 87.226562 178.894531 87.351562 178.894531 L 95.980469 178.894531 C 96.148438 178.894531 96.28125 178.941406 96.378906 179.039062 C 96.476562 179.136719 96.523438 179.273438 96.523438 179.441406 L 96.523438 181.378906 C 96.535156 181.53125 96.484375 181.667969 96.378906 181.78125 C 96.265625 181.886719 96.132812 181.933594 95.980469 181.925781 L 87.351562 181.925781 C 87.230469 181.925781 87.167969 181.988281 87.167969 182.109375 L 87.167969 192.742188 C 87.175781 192.894531 87.128906 193.03125 87.023438 193.140625 C 86.910156 193.25 86.777344 193.296875 86.625 193.289062 L 84.21875 193.289062 C 84.0625 193.296875 83.929688 193.25 83.816406 193.140625 C 83.710938 193.027344 83.664062 192.894531 83.671875 192.742188 L 83.671875 168.257812 C 83.671875 168.089844 83.71875 167.953125 83.816406 167.855469 C 83.929688 167.75 84.0625 167.703125 84.21875 167.710938 L 100.023438 167.710938 C 100.191406 167.710938 100.324219 167.757812 100.425781 167.855469 C 100.527344 167.96875 100.578125 168.105469 100.570312 168.257812 L 100.570312 170.195312 C 100.578125 170.351562 100.53125 170.484375 100.425781 170.601562 Z M 114.152344 174.910156 C 114.417969 175.058594 114.519531 175.289062 114.441406 175.605469 L 113.933594 177.980469 C 113.90625 178.226562 113.789062 178.347656 113.566406 178.347656 C 113.46875 178.351562 113.371094 178.339844 113.277344 178.3125 C 112.875 178.183594 112.460938 178.121094 112.039062 178.128906 C 111.855469 178.125 111.671875 178.136719 111.492188 178.164062 C 110.351562 178.214844 109.410156 178.609375 108.667969 179.355469 C 107.929688 180.097656 107.558594 181.066406 107.558594 182.261719 L 107.558594 192.746094 C 107.570312 192.902344 107.519531 193.035156 107.414062 193.148438 C 107.300781 193.253906 107.167969 193.304688 107.011719 193.292969 L 104.609375 193.292969 C 104.457031 193.304688 104.324219 193.253906 104.210938 193.148438 C 104.109375 193.050781 104.066406 192.917969 104.066406 192.746094 L 104.066406 175.242188 C 104.066406 175.070312 104.109375 174.9375 104.210938 174.839844 C 104.324219 174.734375 104.457031 174.683594 104.609375 174.695312 L 107.011719 174.695312 C 107.183594 174.695312 107.316406 174.742188 107.414062 174.839844 C 107.511719 174.9375 107.558594 175.070312 107.558594 175.242188 L 107.558594 176.921875 C 107.558594 177.019531 107.578125 177.074219 107.613281 177.085938 C 107.648438 177.101562 107.691406 177.066406 107.738281 176.996094 C 108.832031 175.339844 110.3125 174.511719 112.183594 174.511719 C 112.914062 174.511719 113.570312 174.644531 114.152344 174.910156 Z M 121.085938 192.214844 C 119.765625 191.300781 118.835938 190.027344 118.300781 188.394531 C 117.863281 187.082031 117.644531 185.59375 117.644531 183.9375 C 117.644531 182.207031 117.851562 180.746094 118.265625 179.550781 C 118.796875 177.945312 119.734375 176.683594 121.066406 175.769531 C 122.40625 174.855469 123.992188 174.402344 125.839844 174.402344 C 127.589844 174.402344 129.113281 174.855469 130.410156 175.769531 C 131.707031 176.683594 132.636719 177.933594 133.195312 179.515625 C 133.632812 180.757812 133.851562 182.21875 133.851562 183.902344 C 133.851562 185.605469 133.632812 187.105469 133.195312 188.394531 C 132.664062 190.027344 131.738281 191.300781 130.429688 192.210938 C 129.117188 193.125 127.574219 193.582031 125.804688 193.582031 C 123.984375 193.582031 122.410156 193.128906 121.085938 192.214844 Z M 128.351562 189.730469 C 129.078125 189.179688 129.601562 188.40625 129.917969 187.40625 C 130.183594 186.480469 130.320312 185.335938 130.320312 183.972656 C 130.320312 182.609375 130.195312 181.476562 129.953125 180.574219 C 129.636719 179.574219 129.117188 178.804688 128.386719 178.253906 C 127.660156 177.703125 126.773438 177.429688 125.730469 177.429688 C 124.730469 177.429688 123.875 177.707031 123.144531 178.253906 C 122.417969 178.800781 121.894531 179.574219 121.578125 180.574219 C 121.3125 181.425781 121.179688 182.558594 121.179688 183.972656 C 121.179688 185.386719 121.3125 186.53125 121.578125 187.40625 C 121.867188 188.40625 122.386719 189.179688 123.125 189.730469 C 123.867188 190.277344 124.761719 190.550781 125.800781 190.550781 C 126.746094 190.570312 127.59375 190.296875 128.351562 189.730469 Z M 152.3125 176.171875 C 153.476562 177.332031 154.0625 178.894531 154.0625 180.867188 L 154.0625 192.742188 C 154.070312 192.898438 154.023438 193.03125 153.917969 193.144531 C 153.804688 193.25 153.667969 193.300781 153.515625 193.289062 L 151.109375 193.289062 C 150.957031 193.300781 150.824219 193.25 150.710938 193.144531 C 150.605469 193.03125 150.554688 192.898438 150.566406 192.742188 L 150.566406 181.5625 C 150.566406 180.34375 150.210938 179.359375 149.507812 178.601562 C 148.808594 177.847656 147.871094 177.46875 146.703125 177.46875 C 145.664062 177.46875 144.78125 177.78125 144.066406 178.402344 C 143.347656 179.023438 142.929688 179.859375 142.808594 180.90625 L 142.808594 192.746094 C 142.816406 192.902344 142.769531 193.035156 142.664062 193.148438 C 142.550781 193.253906 142.414062 193.304688 142.261719 193.292969 L 139.855469 193.292969 C 139.703125 193.304688 139.570312 193.253906 139.457031 193.148438 C 139.351562 193.035156 139.304688 192.902344 139.3125 192.746094 L 139.3125 175.242188 C 139.3125 175.070312 139.359375 174.9375 139.457031 174.839844 C 139.570312 174.734375 139.703125 174.683594 139.855469 174.695312 L 142.261719 174.695312 C 142.429688 174.695312 142.566406 174.742188 142.664062 174.839844 C 142.769531 174.953125 142.816406 175.085938 142.808594 175.242188 L 142.808594 176.265625 C 142.808594 176.335938 142.832031 176.386719 142.882812 176.410156 C 142.925781 176.4375 142.964844 176.425781 142.988281 176.371094 C 144.007812 175.082031 145.539062 174.4375 147.578125 174.4375 C 149.566406 174.4375 151.148438 175.015625 152.3125 176.171875 Z M 168.953125 177.433594 C 168.839844 177.539062 168.707031 177.585938 168.554688 177.578125 L 164.835938 177.578125 C 164.714844 177.578125 164.65625 177.640625 164.65625 177.761719 L 164.65625 187.296875 C 164.65625 188.347656 164.878906 189.089844 165.328125 189.527344 C 165.78125 189.96875 166.5 190.1875 167.496094 190.1875 L 168.371094 190.1875 C 168.542969 190.1875 168.675781 190.234375 168.769531 190.332031 C 168.875 190.445312 168.925781 190.578125 168.917969 190.734375 L 168.917969 192.632812 C 168.917969 192.976562 168.734375 193.171875 168.371094 193.21875 L 166.875 193.257812 C 165.007812 193.257812 163.609375 192.929688 162.691406 192.269531 C 161.765625 191.613281 161.304688 190.382812 161.304688 188.578125 L 161.304688 177.761719 C 161.304688 177.640625 161.246094 177.578125 161.121094 177.578125 L 159.121094 177.578125 C 158.964844 177.585938 158.832031 177.539062 158.71875 177.433594 C 158.613281 177.320312 158.5625 177.1875 158.574219 177.03125 L 158.574219 175.242188 C 158.574219 175.070312 158.621094 174.9375 158.71875 174.839844 C 158.832031 174.734375 158.964844 174.6875 159.121094 174.695312 L 161.121094 174.695312 C 161.242188 174.695312 161.304688 174.632812 161.304688 174.511719 L 161.304688 170.417969 C 161.304688 170.246094 161.351562 170.117188 161.453125 170.015625 C 161.5625 169.910156 161.695312 169.863281 161.851562 169.871094 L 164.105469 169.871094 C 164.277344 169.871094 164.410156 169.917969 164.507812 170.015625 C 164.605469 170.117188 164.65625 170.246094 164.65625 170.417969 L 164.65625 174.511719 C 164.65625 174.632812 164.714844 174.695312 164.835938 174.695312 L 168.550781 174.695312 C 168.71875 174.695312 168.851562 174.742188 168.953125 174.839844 C 169.050781 174.9375 169.097656 175.070312 169.097656 175.242188 L 169.097656 177.03125 C 169.109375 177.1875 169.058594 177.320312 168.953125 177.433594 Z M 185.886719 188.285156 C 186.007812 188.066406 186.140625 187.957031 186.289062 187.957031 C 186.410156 187.957031 186.515625 187.992188 186.613281 188.066406 L 188.109375 188.980469 C 188.304688 189.101562 188.398438 189.261719 188.398438 189.457031 L 188.328125 189.746094 C 187.667969 190.953125 186.738281 191.894531 185.539062 192.5625 C 184.339844 193.246094 182.9375 193.585938 181.332031 193.585938 C 179.609375 193.585938 178.152344 193.203125 176.960938 192.433594 C 175.773438 191.667969 174.875 190.566406 174.269531 189.125 C 173.660156 187.640625 173.359375 185.898438 173.359375 183.902344 C 173.359375 182.125 173.492188 180.773438 173.757812 179.84375 C 174.195312 178.164062 175.066406 176.835938 176.378906 175.863281 C 177.691406 174.890625 179.28125 174.402344 181.152344 174.402344 C 183.457031 174.402344 185.214844 175.007812 186.429688 176.210938 C 187.644531 177.417969 188.433594 179.164062 188.796875 181.453125 C 188.917969 182.355469 189.003906 183.453125 189.054688 184.742188 C 189.054688 185.109375 188.867188 185.292969 188.503906 185.292969 L 177 185.292969 C 176.878906 185.292969 176.816406 185.351562 176.816406 185.476562 C 176.867188 186.402344 176.949219 187.058594 177.074219 187.445312 C 177.339844 188.421875 177.875 189.1875 178.675781 189.75 C 179.476562 190.308594 180.46875 190.589844 181.660156 190.589844 C 183.628906 190.5625 185.039062 189.796875 185.886719 188.285156 Z M 178.550781 178.199219 C 177.878906 178.710938 177.425781 179.421875 177.183594 180.320312 C 176.992188 180.988281 176.882812 181.671875 176.859375 182.367188 C 176.859375 182.488281 176.917969 182.550781 177.039062 182.550781 L 185.304688 182.550781 C 185.429688 182.550781 185.488281 182.488281 185.488281 182.367188 C 185.441406 181.5625 185.367188 180.964844 185.269531 180.574219 C 185.050781 179.648438 184.574219 178.890625 183.832031 178.292969 C 183.117188 177.71875 182.222656 177.433594 181.15625 177.433594 C 180.089844 177.433594 179.214844 177.6875 178.550781 178.199219 Z M 207.367188 176.171875 C 208.535156 177.332031 209.117188 178.894531 209.117188 180.867188 L 209.117188 192.742188 C 209.128906 192.898438 209.078125 193.03125 208.972656 193.144531 C 208.859375 193.25 208.726562 193.300781 208.574219 193.289062 L 206.167969 193.289062 C 206.015625 193.300781 205.882812 193.25 205.769531 193.144531 C 205.664062 193.03125 205.613281 192.898438 205.625 192.742188 L 205.625 181.5625 C 205.625 180.34375 205.269531 179.359375 204.566406 178.601562 C 203.863281 177.847656 202.929688 177.46875 201.761719 177.46875 C 200.71875 177.46875 199.839844 177.78125 199.121094 178.402344 C 198.402344 179.027344 197.988281 179.859375 197.863281 180.90625 L 197.863281 192.746094 C 197.875 192.902344 197.824219 193.035156 197.71875 193.148438 C 197.605469 193.253906 197.472656 193.304688 197.320312 193.292969 L 194.917969 193.292969 C 194.761719 193.304688 194.628906 193.253906 194.515625 193.148438 C 194.410156 193.035156 194.359375 192.902344 194.371094 192.746094 L 194.371094 175.242188 C 194.371094 175.070312 194.417969 174.9375 194.515625 174.839844 C 194.628906 174.734375 194.761719 174.683594 194.917969 174.695312 L 197.320312 174.695312 C 197.488281 174.695312 197.621094 174.742188 197.71875 174.839844 C 197.816406 174.9375 197.863281 175.070312 197.863281 175.242188 L 197.863281 176.265625 C 197.863281 176.335938 197.890625 176.386719 197.9375 176.410156 C 197.984375 176.4375 198.019531 176.425781 198.050781 176.371094 C 199.070312 175.082031 200.597656 174.4375 202.636719 174.4375 C 204.628906 174.4375 206.203125 175.015625 207.367188 176.171875 Z M 226.453125 167.859375 C 226.566406 167.753906 226.699219 167.707031 226.851562 167.714844 L 229.257812 167.714844 C 229.410156 167.707031 229.542969 167.753906 229.65625 167.859375 C 229.753906 167.957031 229.800781 168.09375 229.800781 168.261719 L 229.800781 192.746094 C 229.8125 192.898438 229.761719 193.035156 229.65625 193.144531 C 229.542969 193.253906 229.410156 193.300781 229.257812 193.292969 L 226.851562 193.292969 C 226.699219 193.300781 226.566406 193.253906 226.453125 193.144531 C 226.351562 193.050781 226.308594 192.917969 226.308594 192.746094 L 226.308594 191.796875 C 226.308594 191.722656 226.28125 191.671875 226.234375 191.648438 C 226.1875 191.625 226.136719 191.636719 226.089844 191.6875 C 225.554688 192.296875 224.929688 192.765625 224.214844 193.09375 C 223.5 193.421875 222.714844 193.585938 221.867188 193.585938 C 220.117188 193.585938 218.667969 193.15625 217.515625 192.292969 C 216.359375 191.425781 215.515625 190.203125 214.984375 188.617188 C 214.546875 187.402344 214.328125 185.84375 214.328125 183.941406 C 214.328125 182.164062 214.507812 180.691406 214.871094 179.519531 C 215.382812 177.914062 216.226562 176.660156 217.402344 175.757812 C 218.582031 174.855469 220.066406 174.40625 221.863281 174.40625 C 222.714844 174.40625 223.496094 174.5625 224.210938 174.878906 C 224.925781 175.195312 225.550781 175.660156 226.089844 176.265625 C 226.132812 176.316406 226.183594 176.332031 226.234375 176.320312 C 226.277344 176.308594 226.304688 176.265625 226.304688 176.195312 L 226.304688 168.265625 C 226.308594 168.09375 226.351562 167.957031 226.453125 167.859375 Z M 226.269531 183.972656 C 226.269531 181.972656 225.953125 180.417969 225.324219 179.296875 C 224.621094 178.054688 223.585938 177.433594 222.230469 177.433594 C 220.820312 177.433594 219.742188 178.015625 218.988281 179.1875 C 218.210938 180.40625 217.824219 182.015625 217.824219 184.011719 C 217.824219 185.886719 218.128906 187.398438 218.734375 188.542969 C 219.4375 189.882812 220.601562 190.550781 222.230469 190.550781 C 223.613281 190.550781 224.667969 189.894531 225.394531 188.578125 C 225.976562 187.503906 226.269531 185.972656 226.269531 183.972656 Z M 244.660156 193.144531 C 244.550781 193.035156 244.503906 192.898438 244.515625 192.746094 L 244.515625 168.261719 C 244.515625 168.09375 244.5625 167.957031 244.660156 167.859375 C 244.769531 167.753906 244.902344 167.707031 245.058594 167.714844 L 247.5 167.714844 C 247.789062 167.714844 248.007812 167.835938 248.15625 168.082031 L 254.269531 177.875 C 254.34375 178.019531 254.417969 178.019531 254.488281 177.875 L 260.644531 168.082031 C 260.789062 167.824219 261.007812 167.703125 261.300781 167.714844 L 263.738281 167.714844 C 263.890625 167.707031 264.023438 167.753906 264.136719 167.859375 C 264.238281 167.957031 264.285156 168.09375 264.285156 168.261719 L 264.285156 192.746094 C 264.292969 192.898438 264.246094 193.035156 264.136719 193.144531 C 264.027344 193.253906 263.890625 193.300781 263.738281 193.292969 L 261.332031 193.292969 C 261.179688 193.300781 261.046875 193.253906 260.933594 193.144531 C 260.835938 193.050781 260.789062 192.917969 260.789062 192.746094 L 260.789062 174.183594 C 260.789062 174.085938 260.761719 174.03125 260.71875 174.015625 C 260.667969 174.003906 260.617188 174.035156 260.570312 174.109375 L 255.621094 182.222656 C 255.476562 182.476562 255.257812 182.601562 254.964844 182.585938 L 253.796875 182.585938 C 253.503906 182.601562 253.285156 182.476562 253.140625 182.222656 L 248.226562 174.109375 C 248.179688 174.035156 248.128906 174.003906 248.082031 174.015625 C 248.03125 174.03125 248.007812 174.085938 248.007812 174.183594 L 248.007812 192.746094 C 248.019531 192.898438 247.96875 193.035156 247.863281 193.144531 C 247.75 193.253906 247.617188 193.300781 247.460938 193.292969 L 245.058594 193.292969 C 244.902344 193.300781 244.769531 193.253906 244.660156 193.144531 Z M 282.75 188.285156 C 282.871094 188.066406 283.003906 187.957031 283.152344 187.957031 C 283.273438 187.957031 283.378906 187.992188 283.476562 188.066406 L 284.96875 188.980469 C 285.164062 189.101562 285.261719 189.261719 285.261719 189.457031 L 285.1875 189.746094 C 284.53125 190.953125 283.601562 191.890625 282.402344 192.5625 C 281.203125 193.246094 279.800781 193.585938 278.195312 193.585938 C 276.472656 193.585938 275.015625 193.203125 273.824219 192.433594 C 272.636719 191.667969 271.738281 190.566406 271.128906 189.125 C 270.523438 187.640625 270.222656 185.898438 270.222656 183.902344 C 270.222656 182.125 270.351562 180.773438 270.621094 179.84375 C 271.058594 178.164062 271.929688 176.835938 273.242188 175.863281 C 274.554688 174.890625 276.144531 174.402344 278.011719 174.402344 C 280.320312 174.402344 282.078125 175.007812 283.292969 176.210938 C 284.503906 177.417969 285.296875 179.164062 285.660156 181.453125 C 285.796875 182.546875 285.878906 183.644531 285.914062 184.742188 C 285.914062 185.109375 285.730469 185.292969 285.367188 185.292969 L 273.863281 185.292969 C 273.742188 185.292969 273.679688 185.351562 273.679688 185.476562 C 273.730469 186.402344 273.8125 187.058594 273.933594 187.445312 C 274.203125 188.421875 274.734375 189.1875 275.535156 189.75 C 276.335938 190.308594 277.332031 190.589844 278.523438 190.589844 C 280.488281 190.5625 281.898438 189.796875 282.75 188.285156 Z M 275.410156 178.199219 C 274.742188 178.710938 274.285156 179.421875 274.042969 180.320312 C 273.851562 180.988281 273.742188 181.671875 273.71875 182.367188 C 273.71875 182.488281 273.777344 182.550781 273.898438 182.550781 L 282.164062 182.550781 C 282.285156 182.550781 282.351562 182.488281 282.351562 182.367188 C 282.300781 181.5625 282.226562 180.964844 282.132812 180.574219 C 281.914062 179.648438 281.433594 178.890625 280.691406 178.292969 C 279.980469 177.71875 279.085938 177.433594 278.015625 177.433594 C 276.945312 177.433594 276.078125 177.6875 275.410156 178.199219 Z M 304.230469 176.171875 C 305.398438 177.332031 305.980469 178.894531 305.980469 180.867188 L 305.980469 192.742188 C 305.988281 192.898438 305.941406 193.03125 305.835938 193.144531 C 305.722656 193.25 305.589844 193.300781 305.4375 193.289062 L 303.03125 193.289062 C 302.878906 193.300781 302.746094 193.25 302.632812 193.144531 C 302.527344 193.03125 302.476562 192.898438 302.488281 192.742188 L 302.488281 181.5625 C 302.488281 180.34375 302.132812 179.359375 301.429688 178.601562 C 300.726562 177.847656 299.792969 177.46875 298.625 177.46875 C 297.582031 177.46875 296.703125 177.78125 295.984375 178.402344 C 295.265625 179.027344 294.851562 179.859375 294.726562 180.90625 L 294.726562 192.746094 C 294.738281 192.902344 294.6875 193.035156 294.582031 193.148438 C 294.46875 193.253906 294.335938 193.304688 294.183594 193.292969 L 291.777344 193.292969 C 291.625 193.304688 291.492188 193.253906 291.378906 193.148438 C 291.273438 193.035156 291.222656 192.902344 291.234375 192.746094 L 291.234375 175.242188 C 291.234375 175.070312 291.28125 174.9375 291.378906 174.839844 C 291.492188 174.734375 291.625 174.683594 291.777344 174.695312 L 294.183594 174.695312 C 294.351562 174.695312 294.484375 174.742188 294.582031 174.839844 C 294.679688 174.9375 294.726562 175.070312 294.726562 175.242188 L 294.726562 176.265625 C 294.726562 176.335938 294.753906 176.386719 294.800781 176.410156 C 294.847656 176.4375 294.882812 176.425781 294.910156 176.371094 C 295.933594 175.082031 297.460938 174.4375 299.5 174.4375 C 301.488281 174.4375 303.066406 175.015625 304.230469 176.171875 Z M 320.871094 177.433594 C 320.761719 177.539062 320.625 177.589844 320.472656 177.578125 L 316.757812 177.578125 C 316.636719 177.578125 316.574219 177.640625 316.574219 177.761719 L 316.574219 187.296875 C 316.574219 188.347656 316.800781 189.089844 317.25 189.527344 C 317.699219 189.96875 318.417969 190.1875 319.417969 190.1875 L 320.289062 190.1875 C 320.445312 190.179688 320.578125 190.226562 320.691406 190.332031 C 320.789062 190.429688 320.835938 190.5625 320.835938 190.734375 L 320.835938 192.632812 C 320.835938 192.976562 320.652344 193.171875 320.289062 193.21875 L 318.796875 193.257812 C 316.925781 193.257812 315.53125 192.929688 314.605469 192.269531 C 313.683594 191.613281 313.222656 190.382812 313.222656 188.578125 L 313.222656 177.761719 C 313.222656 177.640625 313.164062 177.578125 313.042969 177.578125 L 311.039062 177.578125 C 310.882812 177.589844 310.75 177.539062 310.636719 177.433594 C 310.53125 177.320312 310.484375 177.1875 310.492188 177.03125 L 310.492188 175.242188 C 310.492188 175.070312 310.539062 174.9375 310.636719 174.839844 C 310.75 174.734375 310.882812 174.683594 311.039062 174.695312 L 313.042969 174.695312 C 313.164062 174.695312 313.222656 174.632812 313.222656 174.511719 L 313.222656 170.417969 C 313.222656 170.246094 313.273438 170.117188 313.367188 170.015625 C 313.480469 169.910156 313.617188 169.863281 313.769531 169.871094 L 316.027344 169.871094 C 316.195312 169.871094 316.332031 169.917969 316.425781 170.015625 C 316.523438 170.117188 316.570312 170.246094 316.570312 170.417969 L 316.570312 174.511719 C 316.570312 174.632812 316.632812 174.695312 316.757812 174.695312 L 320.46875 174.695312 C 320.640625 174.695312 320.773438 174.742188 320.871094 174.839844 C 320.976562 174.953125 321.023438 175.085938 321.015625 175.242188 L 321.015625 177.03125 C 321.027344 177.1875 320.980469 177.320312 320.871094 177.433594 Z M 328.683594 192.214844 C 327.359375 191.300781 326.433594 190.027344 325.898438 188.394531 C 325.460938 187.082031 325.242188 185.59375 325.242188 183.9375 C 325.242188 182.207031 325.449219 180.746094 325.859375 179.550781 C 326.390625 177.945312 327.328125 176.683594 328.664062 175.769531 C 330.003906 174.855469 331.589844 174.402344 333.4375 174.402344 C 335.1875 174.402344 336.707031 174.855469 338.007812 175.769531 C 339.304688 176.683594 340.234375 177.933594 340.792969 179.515625 C 341.230469 180.757812 341.449219 182.21875 341.449219 183.902344 C 341.449219 185.605469 341.230469 187.105469 340.792969 188.394531 C 340.257812 190.027344 339.335938 191.300781 338.027344 192.210938 C 336.714844 193.125 335.171875 193.582031 333.398438 193.582031 C 331.578125 193.582031 330.007812 193.128906 328.683594 192.214844 Z M 335.949219 189.730469 C 336.675781 189.179688 337.199219 188.40625 337.515625 187.40625 C 337.78125 186.480469 337.914062 185.335938 337.914062 183.972656 C 337.914062 182.609375 337.792969 181.476562 337.550781 180.574219 C 337.234375 179.574219 336.714844 178.804688 335.984375 178.253906 C 335.257812 177.703125 334.371094 177.429688 333.324219 177.429688 C 332.328125 177.429688 331.46875 177.707031 330.742188 178.253906 C 330.015625 178.800781 329.492188 179.574219 329.175781 180.574219 C 328.910156 181.425781 328.773438 182.558594 328.773438 183.972656 C 328.773438 185.386719 328.910156 186.53125 329.175781 187.40625 C 329.464844 188.40625 329.980469 189.179688 330.722656 189.730469 C 331.460938 190.277344 332.355469 190.550781 333.398438 190.550781 C 334.339844 190.570312 335.191406 190.296875 335.949219 189.730469 Z M 356.996094 174.910156 C 357.265625 175.058594 357.363281 175.289062 357.289062 175.605469 L 356.777344 177.980469 C 356.75 178.226562 356.632812 178.347656 356.414062 178.347656 C 356.3125 178.351562 356.214844 178.339844 356.121094 178.3125 C 355.71875 178.183594 355.304688 178.121094 354.882812 178.128906 C 354.640625 178.128906 354.460938 178.140625 354.335938 178.164062 C 353.195312 178.214844 352.253906 178.609375 351.515625 179.355469 C 350.773438 180.097656 350.402344 181.066406 350.402344 182.261719 L 350.402344 192.746094 C 350.414062 192.902344 350.363281 193.035156 350.257812 193.148438 C 350.148438 193.253906 350.015625 193.304688 349.859375 193.292969 L 347.457031 193.292969 C 347.300781 193.304688 347.167969 193.253906 347.054688 193.148438 C 346.949219 193.035156 346.898438 192.902344 346.910156 192.746094 L 346.910156 175.242188 C 346.910156 175.070312 346.957031 174.9375 347.054688 174.839844 C 347.167969 174.734375 347.300781 174.683594 347.457031 174.695312 L 349.859375 174.695312 C 350.027344 174.695312 350.164062 174.742188 350.257812 174.839844 C 350.355469 174.9375 350.402344 175.070312 350.402344 175.242188 L 350.402344 176.921875 C 350.402344 177.019531 350.421875 177.074219 350.457031 177.085938 C 350.496094 177.101562 350.539062 177.066406 350.585938 176.996094 C 351.679688 175.339844 353.160156 174.511719 355.027344 174.511719 C 355.757812 174.511719 356.414062 174.644531 356.996094 174.910156 Z M 356.996094 174.910156 " fill-opacity="1" fill-rule="nonzero"/><path fill="#67bece" d="M 64.285156 186.914062 C 64.074219 186.914062 63.875 186.871094 63.679688 186.785156 L 51.042969 181.109375 C 50.78125 180.988281 50.570312 180.808594 50.410156 180.5625 C 50.253906 180.316406 50.175781 180.050781 50.175781 179.757812 C 50.175781 179.46875 50.253906 179.199219 50.410156 178.957031 C 50.570312 178.710938 50.78125 178.527344 51.042969 178.410156 L 63.679688 172.75 C 63.859375 172.671875 64.046875 172.628906 64.242188 172.625 C 64.4375 172.617188 64.625 172.652344 64.808594 172.722656 C 64.988281 172.789062 65.152344 172.894531 65.292969 173.027344 C 65.4375 173.160156 65.546875 173.320312 65.625 173.496094 C 65.707031 173.675781 65.746094 173.863281 65.753906 174.058594 C 65.757812 174.253906 65.726562 174.445312 65.65625 174.628906 C 65.585938 174.8125 65.484375 174.972656 65.347656 175.117188 C 65.214844 175.257812 65.058594 175.367188 64.882812 175.449219 L 55.253906 179.761719 L 64.882812 184.089844 C 65.199219 184.230469 65.4375 184.457031 65.59375 184.765625 C 65.753906 185.078125 65.796875 185.402344 65.722656 185.746094 C 65.652344 186.085938 65.480469 186.367188 65.210938 186.585938 C 64.941406 186.804688 64.632812 186.914062 64.285156 186.914062 Z M 64.285156 186.914062 " fill-opacity="1" fill-rule="nonzero"/><path fill="#3f54a3" d="M 47.0625 207.515625 C 33.167969 207.515625 21.023438 198.105469 17.53125 184.628906 C 17.480469 184.4375 17.46875 184.246094 17.496094 184.050781 C 17.523438 183.859375 17.585938 183.675781 17.683594 183.507812 C 17.785156 183.339844 17.910156 183.195312 18.066406 183.078125 C 18.222656 182.960938 18.394531 182.875 18.582031 182.824219 C 18.773438 182.777344 18.964844 182.765625 19.15625 182.792969 C 19.351562 182.820312 19.53125 182.882812 19.699219 182.980469 C 19.867188 183.082031 20.011719 183.207031 20.128906 183.363281 C 20.246094 183.519531 20.328125 183.695312 20.378906 183.882812 C 20.761719 185.355469 21.261719 186.785156 21.878906 188.171875 C 22.496094 189.558594 23.222656 190.886719 24.058594 192.15625 C 24.894531 193.425781 25.828125 194.613281 26.859375 195.726562 C 27.890625 196.839844 29.003906 197.863281 30.203125 198.792969 C 31.402344 199.722656 32.667969 200.546875 34.003906 201.265625 C 35.335938 201.984375 36.722656 202.589844 38.15625 203.082031 C 39.589844 203.570312 41.054688 203.941406 42.546875 204.1875 C 44.042969 204.4375 45.546875 204.5625 47.0625 204.5625 C 47.257812 204.5625 47.445312 204.597656 47.625 204.671875 C 47.804688 204.746094 47.964844 204.855469 48.101562 204.992188 C 48.242188 205.132812 48.347656 205.292969 48.421875 205.472656 C 48.496094 205.652344 48.535156 205.84375 48.535156 206.039062 C 48.535156 206.234375 48.496094 206.421875 48.421875 206.601562 C 48.347656 206.785156 48.242188 206.945312 48.101562 207.082031 C 47.964844 207.222656 47.804688 207.328125 47.625 207.402344 C 47.445312 207.476562 47.257812 207.515625 47.0625 207.515625 Z M 47.0625 207.515625 " fill-opacity="1" fill-rule="nonzero"/><path fill="#67bece" d="M 41.988281 195.25 C 41.792969 195.25 41.605469 195.210938 41.425781 195.136719 C 41.246094 195.0625 41.085938 194.953125 40.949219 194.816406 C 40.8125 194.675781 40.703125 194.515625 40.628906 194.335938 C 40.554688 194.15625 40.519531 193.964844 40.519531 193.769531 L 40.519531 165.691406 C 40.519531 165.492188 40.554688 165.304688 40.628906 165.125 C 40.703125 164.941406 40.8125 164.785156 40.949219 164.644531 C 41.085938 164.507812 41.246094 164.398438 41.425781 164.324219 C 41.605469 164.25 41.792969 164.210938 41.988281 164.210938 C 42.183594 164.210938 42.371094 164.25 42.554688 164.324219 C 42.734375 164.398438 42.894531 164.507812 43.03125 164.644531 C 43.167969 164.785156 43.277344 164.941406 43.351562 165.125 C 43.425781 165.304688 43.460938 165.492188 43.460938 165.691406 L 43.460938 193.769531 C 43.460938 193.964844 43.425781 194.15625 43.351562 194.335938 C 43.277344 194.515625 43.167969 194.675781 43.03125 194.816406 C 42.894531 194.953125 42.734375 195.0625 42.554688 195.136719 C 42.371094 195.210938 42.183594 195.25 41.988281 195.25 Z M 41.988281 195.25 " fill-opacity="1" fill-rule="nonzero"/><path fill="#f9c7c5" d="M 97.550781 211.792969 C 97.144531 211.792969 96.796875 211.648438 96.511719 211.359375 L 90.085938 204.910156 L 83.660156 211.359375 C 83.523438 211.496094 83.363281 211.601562 83.183594 211.679688 C 83.003906 211.753906 82.816406 211.789062 82.621094 211.789062 C 82.425781 211.789062 82.238281 211.753906 82.058594 211.679688 C 81.875 211.601562 81.71875 211.496094 81.578125 211.359375 C 81.441406 211.21875 81.335938 211.058594 81.257812 210.878906 C 81.183594 210.699219 81.148438 210.507812 81.148438 210.3125 C 81.148438 210.117188 81.183594 209.929688 81.257812 209.746094 C 81.335938 209.566406 81.441406 209.40625 81.578125 209.269531 L 89.046875 201.777344 C 89.183594 201.636719 89.34375 201.53125 89.523438 201.457031 C 89.703125 201.378906 89.890625 201.34375 90.085938 201.34375 C 90.28125 201.34375 90.46875 201.378906 90.648438 201.457031 C 90.828125 201.53125 90.988281 201.636719 91.125 201.777344 L 98.59375 209.269531 C 98.804688 209.480469 98.9375 209.734375 98.996094 210.027344 C 99.054688 210.320312 99.027344 210.605469 98.914062 210.882812 C 98.800781 211.15625 98.617188 211.378906 98.371094 211.546875 C 98.121094 211.710938 97.847656 211.792969 97.550781 211.792969 Z M 97.550781 211.792969 " fill-opacity="1" fill-rule="nonzero"/><path fill="#f9c7c5" d="M 112.480469 211.792969 C 112.074219 211.792969 111.726562 211.648438 111.441406 211.359375 L 105.015625 204.910156 L 98.59375 211.359375 C 98.453125 211.496094 98.296875 211.601562 98.113281 211.679688 C 97.933594 211.753906 97.746094 211.789062 97.550781 211.789062 C 97.355469 211.789062 97.167969 211.753906 96.988281 211.679688 C 96.808594 211.601562 96.648438 211.496094 96.511719 211.359375 C 96.371094 211.21875 96.265625 211.058594 96.191406 210.878906 C 96.117188 210.699219 96.078125 210.507812 96.078125 210.3125 C 96.078125 210.117188 96.117188 209.929688 96.191406 209.746094 C 96.265625 209.566406 96.371094 209.40625 96.511719 209.269531 L 103.976562 201.777344 C 104.117188 201.640625 104.277344 201.539062 104.457031 201.46875 C 104.636719 201.394531 104.824219 201.359375 105.015625 201.359375 C 105.210938 201.359375 105.398438 201.394531 105.578125 201.46875 C 105.757812 201.539062 105.917969 201.640625 106.058594 201.777344 L 113.523438 209.269531 C 113.734375 209.480469 113.871094 209.734375 113.929688 210.027344 C 113.988281 210.320312 113.957031 210.605469 113.84375 210.882812 C 113.730469 211.160156 113.546875 211.378906 113.300781 211.546875 C 113.050781 211.710938 112.777344 211.792969 112.480469 211.792969 Z M 112.480469 211.792969 " fill-opacity="1" fill-rule="nonzero"/><path fill="#f9c7c5" d="M 127.414062 211.792969 C 127.007812 211.792969 126.660156 211.648438 126.371094 211.359375 L 119.949219 204.910156 L 113.523438 211.359375 C 113.386719 211.496094 113.226562 211.605469 113.046875 211.679688 C 112.867188 211.753906 112.679688 211.792969 112.484375 211.792969 C 112.285156 211.792969 112.097656 211.753906 111.917969 211.679688 C 111.738281 211.605469 111.578125 211.5 111.441406 211.359375 C 111.300781 211.222656 111.195312 211.0625 111.121094 210.878906 C 111.046875 210.699219 111.007812 210.511719 111.007812 210.3125 C 111.007812 210.117188 111.046875 209.929688 111.121094 209.746094 C 111.195312 209.566406 111.304688 209.40625 111.441406 209.269531 L 118.910156 201.777344 C 119.046875 201.636719 119.207031 201.53125 119.386719 201.457031 C 119.566406 201.382812 119.753906 201.34375 119.949219 201.34375 C 120.144531 201.34375 120.332031 201.382812 120.511719 201.457031 C 120.691406 201.53125 120.851562 201.636719 120.988281 201.777344 L 128.453125 209.269531 C 128.664062 209.480469 128.800781 209.734375 128.859375 210.027344 C 128.917969 210.320312 128.886719 210.605469 128.773438 210.878906 C 128.660156 211.15625 128.480469 211.378906 128.230469 211.542969 C 127.984375 211.710938 127.710938 211.792969 127.414062 211.792969 Z M 127.414062 211.792969 " fill-opacity="1" fill-rule="nonzero"/><path fill="#f9c7c5" d="M 142.339844 211.792969 C 141.933594 211.792969 141.589844 211.648438 141.304688 211.359375 L 134.878906 204.910156 L 128.453125 211.359375 C 128.316406 211.496094 128.15625 211.601562 127.976562 211.679688 C 127.796875 211.753906 127.609375 211.789062 127.414062 211.789062 C 127.21875 211.789062 127.03125 211.753906 126.847656 211.679688 C 126.667969 211.601562 126.507812 211.496094 126.371094 211.359375 C 126.234375 211.21875 126.125 211.058594 126.050781 210.878906 C 125.976562 210.699219 125.941406 210.507812 125.941406 210.3125 C 125.941406 210.117188 125.976562 209.929688 126.050781 209.746094 C 126.125 209.566406 126.234375 209.40625 126.371094 209.269531 L 133.835938 201.777344 C 133.976562 201.640625 134.136719 201.539062 134.316406 201.46875 C 134.496094 201.394531 134.683594 201.359375 134.878906 201.359375 C 135.070312 201.359375 135.257812 201.394531 135.4375 201.46875 C 135.617188 201.539062 135.777344 201.640625 135.917969 201.777344 L 143.386719 209.269531 C 143.597656 209.480469 143.734375 209.734375 143.792969 210.027344 C 143.851562 210.320312 143.820312 210.605469 143.707031 210.882812 C 143.59375 211.160156 143.410156 211.382812 143.160156 211.546875 C 142.914062 211.710938 142.640625 211.792969 142.339844 211.792969 Z M 142.339844 211.792969 " fill-opacity="1" fill-rule="nonzero"/><path fill="#f9c7c5" d="M 157.273438 211.792969 C 156.867188 211.792969 156.519531 211.648438 156.234375 211.359375 L 149.808594 204.910156 L 143.386719 211.359375 C 143.25 211.496094 143.089844 211.605469 142.910156 211.679688 C 142.730469 211.753906 142.539062 211.792969 142.34375 211.792969 C 142.148438 211.792969 141.960938 211.753906 141.78125 211.679688 C 141.601562 211.605469 141.441406 211.5 141.304688 211.359375 C 141.164062 211.222656 141.058594 211.0625 140.984375 210.878906 C 140.910156 210.699219 140.871094 210.507812 140.871094 210.3125 C 140.871094 210.117188 140.910156 209.929688 140.984375 209.746094 C 141.058594 209.566406 141.167969 209.40625 141.304688 209.269531 L 148.769531 201.777344 C 148.910156 201.640625 149.070312 201.539062 149.25 201.46875 C 149.429688 201.394531 149.617188 201.359375 149.8125 201.359375 C 150.003906 201.359375 150.191406 201.394531 150.371094 201.46875 C 150.550781 201.539062 150.710938 201.640625 150.851562 201.777344 L 158.320312 209.269531 C 158.53125 209.480469 158.664062 209.734375 158.722656 210.027344 C 158.78125 210.320312 158.753906 210.605469 158.636719 210.882812 C 158.523438 211.160156 158.34375 211.378906 158.09375 211.546875 C 157.847656 211.710938 157.574219 211.792969 157.273438 211.792969 Z M 157.273438 211.792969 " fill-opacity="1" fill-rule="nonzero"/><path fill="#f9c7c5" d="M 172.203125 211.792969 C 171.796875 211.792969 171.449219 211.648438 171.164062 211.359375 L 164.738281 204.910156 L 158.316406 211.359375 C 158.179688 211.496094 158.019531 211.601562 157.839844 211.679688 C 157.660156 211.753906 157.472656 211.789062 157.277344 211.789062 C 157.082031 211.789062 156.890625 211.753906 156.710938 211.679688 C 156.53125 211.601562 156.371094 211.496094 156.234375 211.359375 C 156.097656 211.21875 155.988281 211.058594 155.914062 210.878906 C 155.839844 210.699219 155.804688 210.507812 155.804688 210.3125 C 155.804688 210.117188 155.839844 209.929688 155.914062 209.746094 C 155.988281 209.566406 156.097656 209.40625 156.234375 209.269531 L 163.699219 201.777344 C 163.839844 201.640625 164 201.539062 164.179688 201.46875 C 164.359375 201.394531 164.546875 201.359375 164.742188 201.359375 C 164.933594 201.359375 165.121094 201.394531 165.300781 201.46875 C 165.480469 201.539062 165.640625 201.640625 165.78125 201.777344 L 173.25 209.269531 C 173.460938 209.480469 173.59375 209.734375 173.652344 210.027344 C 173.710938 210.320312 173.683594 210.605469 173.566406 210.882812 C 173.453125 211.160156 173.273438 211.378906 173.023438 211.546875 C 172.777344 211.710938 172.503906 211.792969 172.203125 211.792969 Z M 172.203125 211.792969 " fill-opacity="1" fill-rule="nonzero"/><path fill="#f9c7c5" d="M 187.136719 211.792969 C 186.730469 211.792969 186.382812 211.648438 186.09375 211.359375 L 179.671875 204.910156 L 173.25 211.359375 C 173.109375 211.496094 172.949219 211.605469 172.769531 211.679688 C 172.589844 211.753906 172.402344 211.792969 172.207031 211.792969 C 172.011719 211.792969 171.824219 211.753906 171.640625 211.679688 C 171.460938 211.605469 171.300781 211.5 171.164062 211.359375 C 171.027344 211.222656 170.917969 211.0625 170.84375 210.878906 C 170.769531 210.699219 170.730469 210.507812 170.734375 210.3125 C 170.734375 210.117188 170.769531 209.929688 170.84375 209.746094 C 170.921875 209.566406 171.027344 209.40625 171.164062 209.269531 L 178.628906 201.777344 C 178.769531 201.640625 178.929688 201.539062 179.113281 201.46875 C 179.292969 201.394531 179.476562 201.359375 179.671875 201.359375 C 179.867188 201.359375 180.050781 201.394531 180.230469 201.46875 C 180.410156 201.539062 180.570312 201.640625 180.714844 201.777344 L 188.179688 209.269531 C 188.390625 209.480469 188.527344 209.734375 188.582031 210.027344 C 188.640625 210.320312 188.613281 210.605469 188.5 210.882812 C 188.386719 211.160156 188.203125 211.378906 187.957031 211.546875 C 187.707031 211.710938 187.433594 211.792969 187.136719 211.792969 Z M 187.136719 211.792969 " fill-opacity="1" fill-rule="nonzero"/><path fill="#f9c7c5" d="M 202.066406 211.792969 C 201.660156 211.792969 201.3125 211.648438 201.023438 211.359375 L 194.601562 204.910156 L 188.175781 211.359375 C 188.039062 211.496094 187.878906 211.605469 187.699219 211.679688 C 187.519531 211.753906 187.332031 211.792969 187.136719 211.792969 C 186.941406 211.792969 186.753906 211.753906 186.570312 211.679688 C 186.390625 211.605469 186.230469 211.5 186.09375 211.359375 C 185.953125 211.222656 185.847656 211.0625 185.773438 210.878906 C 185.699219 210.699219 185.660156 210.507812 185.660156 210.3125 C 185.664062 210.117188 185.699219 209.929688 185.773438 209.746094 C 185.851562 209.566406 185.957031 209.40625 186.09375 209.269531 L 193.5625 201.777344 C 193.699219 201.636719 193.859375 201.53125 194.039062 201.457031 C 194.21875 201.382812 194.40625 201.34375 194.601562 201.34375 C 194.796875 201.34375 194.984375 201.382812 195.164062 201.457031 C 195.34375 201.53125 195.503906 201.636719 195.640625 201.777344 L 203.105469 209.269531 C 203.316406 209.480469 203.453125 209.734375 203.511719 210.027344 C 203.570312 210.320312 203.542969 210.605469 203.429688 210.878906 C 203.3125 211.15625 203.132812 211.378906 202.886719 211.542969 C 202.636719 211.710938 202.363281 211.792969 202.066406 211.792969 Z M 202.066406 211.792969 " fill-opacity="1" fill-rule="nonzero"/><path fill="#f9c7c5" d="M 216.996094 211.792969 C 216.589844 211.792969 216.242188 211.648438 215.957031 211.359375 L 209.53125 204.910156 L 203.105469 211.359375 C 202.96875 211.496094 202.808594 211.601562 202.628906 211.679688 C 202.449219 211.753906 202.261719 211.789062 202.066406 211.789062 C 201.871094 211.789062 201.683594 211.753906 201.503906 211.679688 C 201.320312 211.601562 201.164062 211.496094 201.023438 211.359375 C 200.886719 211.21875 200.78125 211.058594 200.707031 210.878906 C 200.628906 210.699219 200.59375 210.507812 200.59375 210.3125 C 200.59375 210.117188 200.628906 209.929688 200.707031 209.746094 C 200.78125 209.566406 200.886719 209.40625 201.023438 209.269531 L 208.492188 201.777344 C 208.628906 201.636719 208.789062 201.53125 208.96875 201.457031 C 209.148438 201.378906 209.335938 201.34375 209.53125 201.34375 C 209.726562 201.34375 209.914062 201.378906 210.09375 201.457031 C 210.273438 201.53125 210.433594 201.636719 210.570312 201.777344 L 218.039062 209.269531 C 218.25 209.480469 218.382812 209.734375 218.441406 210.027344 C 218.5 210.320312 218.472656 210.605469 218.359375 210.882812 C 218.246094 211.160156 218.0625 211.378906 217.816406 211.546875 C 217.566406 211.710938 217.292969 211.792969 216.996094 211.792969 Z M 216.996094 211.792969 " fill-opacity="1" fill-rule="nonzero"/><path fill="#f9c7c5" d="M 231.929688 211.792969 C 231.519531 211.792969 231.175781 211.648438 230.886719 211.359375 L 224.464844 204.910156 L 218.039062 211.359375 C 217.902344 211.496094 217.742188 211.601562 217.5625 211.679688 C 217.382812 211.753906 217.195312 211.789062 217 211.789062 C 216.804688 211.789062 216.617188 211.753906 216.4375 211.679688 C 216.253906 211.601562 216.097656 211.496094 215.957031 211.359375 C 215.820312 211.21875 215.714844 211.058594 215.640625 210.878906 C 215.5625 210.699219 215.527344 210.507812 215.527344 210.3125 C 215.527344 210.117188 215.5625 209.929688 215.640625 209.746094 C 215.714844 209.566406 215.820312 209.40625 215.957031 209.269531 L 223.421875 201.777344 C 223.5625 201.636719 223.71875 201.53125 223.898438 201.457031 C 224.082031 201.382812 224.269531 201.34375 224.464844 201.34375 C 224.65625 201.34375 224.847656 201.382812 225.027344 201.457031 C 225.207031 201.53125 225.367188 201.636719 225.503906 201.777344 L 232.96875 209.269531 C 233.179688 209.480469 233.316406 209.734375 233.375 210.027344 C 233.433594 210.320312 233.40625 210.605469 233.289062 210.882812 C 233.175781 211.15625 232.996094 211.378906 232.746094 211.546875 C 232.5 211.710938 232.226562 211.792969 231.929688 211.792969 Z M 231.929688 211.792969 " fill-opacity="1" fill-rule="nonzero"/></svg>