<svg xmlns="http://www.w3.org/2000/svg" xmlns:xlink="http://www.w3.org/1999/xlink" width="50" zoomAndPan="magnify" viewBox="0 0 37.5 37.499999" height="50" preserveAspectRatio="xMidYMid meet" version="1.0"><defs><clipPath id="b7893c9e8d"><path d="M 0 0 L 37.007812 0 L 37.007812 37.007812 L 0 37.007812 Z M 0 0 " clip-rule="nonzero"/></clipPath><clipPath id="046b0e2bfa"><path d="M 8.785156 7.617188 L 29.035156 7.617188 L 29.035156 30.117188 L 8.785156 30.117188 Z M 8.785156 7.617188 " clip-rule="nonzero"/></clipPath></defs><g clip-path="url(#b7893c9e8d)"><path fill="#ffffff" d="M 0 0 L 37.5 0 L 37.5 45 L 0 45 Z M 0 0 " fill-opacity="1" fill-rule="nonzero"/><path fill="#ffffff" d="M 0 0 L 37.5 0 L 37.5 37.5 L 0 37.5 Z M 0 0 " fill-opacity="1" fill-rule="nonzero"/><path fill="#545454" d="M 0 0 L 37.5 0 L 37.5 37.5 L 0 37.5 Z M 0 0 " fill-opacity="1" fill-rule="nonzero"/></g><g clip-path="url(#046b0e2bfa)"><path fill="#0277bd" d="M 29.035156 7.617188 L 8.785156 7.617188 L 10.574219 27.75 L 18.910156 30.117188 L 27.25 27.75 Z M 29.035156 7.617188 " fill-opacity="1" fill-rule="nonzero"/></g><path fill="#039be5" d="M 18.910156 9.394531 L 18.910156 28.28125 L 25.582031 26.386719 L 27.070312 9.394531 Z M 18.910156 9.394531 " fill-opacity="1" fill-rule="nonzero"/><path fill="#ffffff" d="M 24.332031 12.355469 L 18.910156 12.355469 L 18.910156 14.722656 L 21.828125 14.722656 L 21.652344 17.089844 L 18.910156 17.089844 L 18.910156 19.460938 L 21.53125 19.460938 L 21.351562 22.125 L 18.910156 22.953125 L 18.910156 25.441406 L 23.617188 23.898438 L 24.03125 17.089844 Z M 24.332031 12.355469 " fill-opacity="1" fill-rule="nonzero"/><path fill="#eeeeee" d="M 18.910156 12.355469 L 18.910156 14.722656 L 13.609375 14.722656 L 13.433594 12.355469 Z M 16.171875 17.089844 L 16.289062 19.460938 L 18.910156 19.460938 L 18.910156 17.089844 Z M 16.410156 20.644531 L 14.027344 20.644531 L 14.207031 23.898438 L 18.910156 25.441406 L 18.910156 22.953125 L 16.46875 22.125 Z M 16.410156 20.644531 " fill-opacity="1" fill-rule="nonzero"/></svg>