<svg xmlns="http://www.w3.org/2000/svg" xmlns:xlink="http://www.w3.org/1999/xlink" width="500" zoomAndPan="magnify" viewBox="0 0 375 374.999991" height="500" preserveAspectRatio="xMidYMid meet" version="1.0"><defs><clipPath id="ae00047463"><path d="M 89.753906 103 L 285.503906 103 L 285.503906 325.652344 L 89.753906 325.652344 Z M 89.753906 103 " clip-rule="nonzero"/></clipPath><clipPath id="9ad32cae75"><path d="M 135 49.652344 L 166 49.652344 L 166 87 L 135 87 Z M 135 49.652344 " clip-rule="nonzero"/></clipPath><clipPath id="4d1aed9bbe"><path d="M 171 49.652344 L 202 49.652344 L 202 88 L 171 88 Z M 171 49.652344 " clip-rule="nonzero"/></clipPath><clipPath id="790252f778"><path d="M 207 49.652344 L 237 49.652344 L 237 88 L 207 88 Z M 207 49.652344 " clip-rule="nonzero"/></clipPath></defs><rect x="-37.5" width="450" fill="#ffffff" y="-37.499999" height="449.999989" fill-opacity="1"/><rect x="-37.5" width="450" fill="#ffffff" y="-37.499999" height="449.999989" fill-opacity="1"/><rect x="-37.5" width="450" fill="#ffffff" y="-37.499999" height="449.999989" fill-opacity="1"/><g clip-path="url(#ae00047463)"><path fill="#264de4" d="M 187.546875 325.648438 L 107.679688 303.480469 L 89.878906 103.894531 L 285.449219 103.894531 L 267.640625 303.445312 L 187.550781 325.644531 Z M 187.546875 325.648438 " fill-opacity="1" fill-rule="nonzero"/></g><path fill="#2965f1" d="M 252.386719 290.742188 L 267.613281 120.214844 L 187.667969 120.210938 L 187.667969 308.675781 L 252.386719 290.738281 Z M 252.386719 290.742188 " fill-opacity="1" fill-rule="nonzero"/><path fill="#ebebeb" d="M 130.683594 194.238281 L 132.878906 218.710938 L 187.667969 218.710938 L 187.667969 194.238281 Z M 130.683594 194.238281 " fill-opacity="1" fill-rule="nonzero"/><path fill="#ebebeb" d="M 126.273438 144.6875 L 128.5 169.167969 L 187.667969 169.167969 L 187.667969 144.6875 Z M 126.273438 144.6875 " fill-opacity="1" fill-rule="nonzero"/><path fill="#ebebeb" d="M 187.667969 257.808594 L 187.5625 257.839844 L 160.292969 250.472656 L 158.550781 230.953125 L 133.972656 230.953125 L 137.402344 269.390625 L 187.554688 283.308594 L 187.667969 283.277344 Z M 187.667969 257.808594 " fill-opacity="1" fill-rule="nonzero"/><g clip-path="url(#9ad32cae75)"><path fill="#000000" d="M 135.910156 49.652344 L 165.5625 49.652344 L 165.5625 62.050781 L 148.308594 62.050781 L 148.308594 74.449219 L 165.5625 74.449219 L 165.5625 86.847656 L 135.910156 86.847656 Z M 135.910156 49.652344 " fill-opacity="1" fill-rule="nonzero"/></g><g clip-path="url(#4d1aed9bbe)"><path fill="#000000" d="M 171.492188 49.652344 L 201.144531 49.652344 L 201.144531 60.433594 L 183.894531 60.433594 L 183.894531 62.589844 L 201.144531 62.589844 L 201.144531 87.386719 L 171.492188 87.386719 L 171.492188 76.066406 L 188.75 76.066406 L 188.75 73.910156 L 171.492188 73.910156 Z M 171.492188 49.652344 " fill-opacity="1" fill-rule="nonzero"/></g><g clip-path="url(#790252f778)"><path fill="#000000" d="M 207.078125 49.652344 L 236.734375 49.652344 L 236.734375 60.433594 L 219.476562 60.433594 L 219.476562 62.589844 L 236.734375 62.589844 L 236.734375 87.386719 L 207.078125 87.386719 L 207.078125 76.066406 L 224.328125 76.066406 L 224.328125 73.910156 L 207.078125 73.910156 Z M 207.078125 49.652344 " fill-opacity="1" fill-rule="nonzero"/></g><path fill="#ffffff" d="M 244.5 194.238281 L 248.914062 144.6875 L 187.582031 144.6875 L 187.582031 169.167969 L 222.082031 169.167969 L 219.859375 194.238281 L 187.582031 194.238281 L 187.582031 218.710938 L 217.734375 218.710938 L 214.890625 250.457031 L 187.582031 257.832031 L 187.582031 283.292969 L 237.773438 269.390625 L 238.144531 265.25 L 243.902344 200.804688 Z M 244.5 194.238281 " fill-opacity="1" fill-rule="nonzero"/></svg>