<svg xmlns="http://www.w3.org/2000/svg" xmlns:xlink="http://www.w3.org/1999/xlink" width="500" zoomAndPan="magnify" viewBox="0 0 375 374.999991" height="500" preserveAspectRatio="xMidYMid meet" version="1.0"><rect x="-37.5" width="450" fill="#ffffff" y="-37.499999" height="449.999989" fill-opacity="1"/><rect x="-37.5" width="450" fill="#ffffff" y="-37.499999" height="449.999989" fill-opacity="1"/><rect x="-37.5" width="450" fill="#ffffff" y="-37.499999" height="449.999989" fill-opacity="1"/><path fill="#e64a19" d="M 197.609375 151.625 L 156.734375 151.625 C 136.984375 151.625 120.96875 135.613281 120.96875 115.859375 C 120.96875 96.109375 136.984375 80.09375 156.734375 80.09375 L 197.609375 80.09375 Z M 197.609375 151.625 " fill-opacity="1" fill-rule="nonzero"/><path fill="#7c4dff" d="M 192.5 223.15625 L 156.734375 223.15625 C 136.984375 223.15625 120.96875 207.144531 120.96875 187.390625 C 120.96875 167.640625 136.984375 151.625 156.734375 151.625 L 192.5 151.625 Z M 192.5 223.15625 " fill-opacity="1" fill-rule="nonzero"/><path fill="#66bb6a" d="M 156.734375 294.6875 C 136.984375 294.6875 120.96875 278.675781 120.96875 258.921875 C 120.96875 239.171875 136.984375 223.15625 156.734375 223.15625 L 192.5 223.15625 L 192.5 258.921875 C 192.5 278.675781 176.488281 294.6875 156.734375 294.6875 Z M 156.734375 294.6875 " fill-opacity="1" fill-rule="nonzero"/><path fill="#ff7043" d="M 228.265625 151.625 L 192.5 151.625 L 192.5 80.09375 L 228.265625 80.09375 C 248.019531 80.09375 264.03125 96.109375 264.03125 115.859375 C 264.03125 135.613281 248.019531 151.625 228.265625 151.625 Z M 228.265625 151.625 " fill-opacity="1" fill-rule="nonzero"/><path fill="#29b6f6" d="M 264.03125 187.390625 C 264.03125 188.5625 263.976562 189.730469 263.859375 190.898438 C 263.746094 192.0625 263.574219 193.21875 263.34375 194.371094 C 263.117188 195.519531 262.832031 196.652344 262.492188 197.773438 C 262.152344 198.894531 261.757812 199.996094 261.308594 201.078125 C 260.863281 202.160156 260.363281 203.21875 259.808594 204.25 C 259.257812 205.285156 258.65625 206.289062 258.003906 207.261719 C 257.355469 208.234375 256.65625 209.175781 255.914062 210.082031 C 255.171875 210.988281 254.386719 211.855469 253.558594 212.683594 C 252.730469 213.511719 251.863281 214.296875 250.957031 215.039062 C 250.050781 215.78125 249.109375 216.480469 248.136719 217.128906 C 247.164062 217.78125 246.160156 218.382812 245.125 218.933594 C 244.09375 219.488281 243.035156 219.988281 241.953125 220.433594 C 240.871094 220.882812 239.769531 221.277344 238.648438 221.617188 C 237.527344 221.957031 236.394531 222.242188 235.246094 222.46875 C 234.09375 222.699219 232.9375 222.871094 231.773438 222.984375 C 230.605469 223.101562 229.4375 223.15625 228.265625 223.15625 C 227.09375 223.15625 225.925781 223.101562 224.761719 222.984375 C 223.59375 222.871094 222.4375 222.699219 221.289062 222.46875 C 220.140625 222.242188 219.003906 221.957031 217.882812 221.617188 C 216.761719 221.277344 215.660156 220.882812 214.578125 220.433594 C 213.496094 219.988281 212.441406 219.488281 211.40625 218.933594 C 210.375 218.382812 209.371094 217.78125 208.394531 217.128906 C 207.421875 216.480469 206.484375 215.78125 205.578125 215.039062 C 204.671875 214.296875 203.804688 213.511719 202.976562 212.683594 C 202.148438 211.855469 201.363281 210.988281 200.621094 210.082031 C 199.875 209.175781 199.179688 208.234375 198.527344 207.261719 C 197.878906 206.289062 197.277344 205.285156 196.722656 204.25 C 196.171875 203.21875 195.671875 202.160156 195.222656 201.078125 C 194.773438 199.996094 194.382812 198.894531 194.042969 197.773438 C 193.699219 196.652344 193.417969 195.519531 193.1875 194.371094 C 192.960938 193.21875 192.789062 192.0625 192.671875 190.898438 C 192.558594 189.730469 192.5 188.5625 192.5 187.390625 C 192.5 186.21875 192.558594 185.050781 192.671875 183.886719 C 192.789062 182.71875 192.960938 181.5625 193.1875 180.414062 C 193.417969 179.265625 193.699219 178.128906 194.042969 177.007812 C 194.382812 175.886719 194.773438 174.785156 195.222656 173.703125 C 195.671875 172.621094 196.171875 171.566406 196.722656 170.53125 C 197.277344 169.5 197.878906 168.496094 198.527344 167.519531 C 199.179688 166.546875 199.875 165.609375 200.621094 164.703125 C 201.363281 163.796875 202.148438 162.929688 202.976562 162.101562 C 203.804688 161.273438 204.671875 160.488281 205.578125 159.746094 C 206.484375 159 207.421875 158.304688 208.394531 157.652344 C 209.371094 157.003906 210.375 156.402344 211.40625 155.847656 C 212.441406 155.296875 213.496094 154.796875 214.578125 154.347656 C 215.660156 153.898438 216.761719 153.507812 217.882812 153.167969 C 219.003906 152.824219 220.140625 152.542969 221.289062 152.3125 C 222.4375 152.085938 223.59375 151.914062 224.761719 151.796875 C 225.925781 151.683594 227.09375 151.625 228.265625 151.625 C 229.4375 151.625 230.605469 151.683594 231.773438 151.796875 C 232.9375 151.914062 234.09375 152.085938 235.246094 152.3125 C 236.394531 152.542969 237.527344 152.824219 238.648438 153.167969 C 239.769531 153.507812 240.871094 153.898438 241.953125 154.347656 C 243.035156 154.796875 244.09375 155.296875 245.125 155.847656 C 246.160156 156.402344 247.164062 157.003906 248.136719 157.652344 C 249.109375 158.304688 250.050781 159 250.957031 159.746094 C 251.863281 160.488281 252.730469 161.273438 253.558594 162.101562 C 254.386719 162.929688 255.171875 163.796875 255.914062 164.703125 C 256.65625 165.609375 257.355469 166.546875 258.003906 167.519531 C 258.65625 168.496094 259.257812 169.5 259.808594 170.53125 C 260.363281 171.566406 260.863281 172.621094 261.308594 173.703125 C 261.757812 174.785156 262.152344 175.886719 262.492188 177.007812 C 262.832031 178.128906 263.117188 179.265625 263.34375 180.414062 C 263.574219 181.5625 263.746094 182.71875 263.859375 183.886719 C 263.976562 185.050781 264.03125 186.21875 264.03125 187.390625 Z M 264.03125 187.390625 " fill-opacity="1" fill-rule="nonzero"/></svg>