<svg xmlns="http://www.w3.org/2000/svg" xmlns:xlink="http://www.w3.org/1999/xlink" width="500" zoomAndPan="magnify" viewBox="0 0 375 374.999991" height="500" preserveAspectRatio="xMidYMid meet" version="1.0"><defs><clipPath id="82c598fc6f"><path d="M 89.753906 103 L 285.503906 103 L 285.503906 325.652344 L 89.753906 325.652344 Z M 89.753906 103 " clip-rule="nonzero"/></clipPath><clipPath id="f543de614b"><path d="M 108 49.652344 L 145 49.652344 L 145 87 L 108 87 Z M 108 49.652344 " clip-rule="nonzero"/></clipPath><clipPath id="41ffb35fd4"><path d="M 149 49.652344 L 185 49.652344 L 185 87 L 149 87 Z M 149 49.652344 " clip-rule="nonzero"/></clipPath><clipPath id="53caefe881"><path d="M 189 49.652344 L 232 49.652344 L 232 87 L 189 87 Z M 189 49.652344 " clip-rule="nonzero"/></clipPath><clipPath id="073d19757d"><path d="M 237 49.652344 L 268 49.652344 L 268 87 L 237 87 Z M 237 49.652344 " clip-rule="nonzero"/></clipPath></defs><rect x="-37.5" width="450" fill="#ffffff" y="-37.499999" height="449.999989" fill-opacity="1"/><rect x="-37.5" width="450" fill="#ffffff" y="-37.499999" height="449.999989" fill-opacity="1"/><rect x="-37.5" width="450" fill="#ffffff" y="-37.499999" height="449.999989" fill-opacity="1"/><g clip-path="url(#82c598fc6f)"><path fill="#e44d26" d="M 285.453125 103.894531 L 267.636719 303.445312 L 187.546875 325.644531 L 107.679688 303.476562 L 89.878906 103.894531 L 285.449219 103.890625 L 285.457031 103.890625 Z M 285.453125 103.894531 " fill-opacity="1" fill-rule="nonzero"/></g><path fill="#f16529" d="M 187.667969 308.675781 L 252.386719 290.742188 L 267.613281 120.214844 L 187.667969 120.210938 Z M 187.667969 308.675781 " fill-opacity="1" fill-rule="nonzero"/><path fill="#ebebeb" d="M 153.03125 169.167969 L 187.667969 169.167969 L 187.667969 144.6875 L 126.273438 144.6875 L 126.859375 151.253906 L 132.878906 218.710938 L 187.667969 218.710938 L 187.667969 194.238281 L 155.269531 194.238281 Z M 153.03125 169.167969 " fill-opacity="1" fill-rule="nonzero"/><path fill="#ebebeb" d="M 158.550781 230.953125 L 133.972656 230.953125 L 137.402344 269.390625 L 187.554688 283.308594 L 187.667969 283.277344 L 187.667969 257.808594 L 187.5625 257.839844 L 160.292969 250.472656 Z M 158.550781 230.953125 " fill-opacity="1" fill-rule="nonzero"/><g clip-path="url(#f543de614b)"><path fill="#000000" d="M 108.078125 49.652344 L 120.519531 49.652344 L 120.519531 61.945312 L 131.902344 61.945312 L 131.902344 49.652344 L 144.34375 49.652344 L 144.34375 86.871094 L 131.902344 86.871094 L 131.902344 74.410156 L 120.519531 74.410156 L 120.519531 86.871094 L 108.078125 86.871094 Z M 108.078125 49.652344 " fill-opacity="1" fill-rule="nonzero"/></g><g clip-path="url(#41ffb35fd4)"><path fill="#000000" d="M 160.707031 61.996094 L 149.753906 61.996094 L 149.753906 49.652344 L 184.109375 49.652344 L 184.109375 61.996094 L 173.148438 61.996094 L 173.148438 86.871094 L 160.707031 86.871094 Z M 160.707031 61.996094 " fill-opacity="1" fill-rule="nonzero"/></g><g clip-path="url(#53caefe881)"><path fill="#000000" d="M 189.5625 49.652344 L 202.53125 49.652344 L 210.515625 62.730469 L 218.488281 49.652344 L 231.464844 49.652344 L 231.464844 86.871094 L 219.078125 86.871094 L 219.078125 68.425781 L 210.515625 81.65625 L 210.300781 81.65625 L 201.734375 68.425781 L 201.734375 86.871094 L 189.5625 86.871094 Z M 189.5625 49.652344 " fill-opacity="1" fill-rule="nonzero"/></g><g clip-path="url(#073d19757d)"><path fill="#000000" d="M 237.660156 49.652344 L 250.101562 49.652344 L 250.101562 74.570312 L 267.605469 74.570312 L 267.605469 86.871094 L 237.660156 86.871094 Z M 237.660156 49.652344 " fill-opacity="1" fill-rule="nonzero"/></g><path fill="#ffffff" d="M 187.582031 218.710938 L 217.734375 218.710938 L 214.890625 250.457031 L 187.582031 257.832031 L 187.582031 283.292969 L 237.773438 269.390625 L 238.144531 265.25 L 243.902344 200.804688 L 244.5 194.238281 L 187.582031 194.238281 Z M 187.582031 218.710938 " fill-opacity="1" fill-rule="nonzero"/><path fill="#ffffff" d="M 187.582031 169.105469 L 187.582031 169.167969 L 246.722656 169.167969 L 247.210938 163.664062 L 248.332031 151.253906 L 248.914062 144.6875 L 187.582031 144.6875 Z M 187.582031 169.105469 " fill-opacity="1" fill-rule="nonzero"/></svg>