<svg xmlns="http://www.w3.org/2000/svg" xmlns:xlink="http://www.w3.org/1999/xlink" width="50" zoomAndPan="magnify" viewBox="0 0 37.5 37.499999" height="50" preserveAspectRatio="xMidYMid meet" version="1.0"><defs><clipPath id="935e4dfcaa"><path d="M 0 0 L 37.007812 0 L 37.007812 37.007812 L 0 37.007812 Z M 0 0 " clip-rule="nonzero"/></clipPath><clipPath id="5e890dc5cd"><path d="M 8.890625 7.5 L 28.390625 7.5 L 28.390625 30 L 8.890625 30 Z M 8.890625 7.5 " clip-rule="nonzero"/></clipPath></defs><g clip-path="url(#935e4dfcaa)"><path fill="#ffffff" d="M 0 0 L 37.5 0 L 37.5 45 L 0 45 Z M 0 0 " fill-opacity="1" fill-rule="nonzero"/><path fill="#ffffff" d="M 0 0 L 37.5 0 L 37.5 37.5 L 0 37.5 Z M 0 0 " fill-opacity="1" fill-rule="nonzero"/><path fill="#545454" d="M 0 0 L 37.5 0 L 37.5 37.5 L 0 37.5 Z M 0 0 " fill-opacity="1" fill-rule="nonzero"/></g><g clip-path="url(#5e890dc5cd)"><path fill="#e44d26" d="M 10.660156 27.699219 L 8.886719 7.566406 L 28.394531 7.566406 L 26.621094 27.695312 L 18.628906 29.933594 Z M 10.660156 27.699219 " fill-opacity="1" fill-rule="nonzero"/></g><path fill="#f16529" d="M 25.097656 26.414062 L 26.617188 9.214844 L 18.640625 9.214844 L 18.640625 28.222656 Z M 25.097656 26.414062 " fill-opacity="1" fill-rule="nonzero"/><path fill="#ebebeb" d="M 18.632812 11.683594 L 12.515625 11.683594 L 13.175781 19.148438 L 18.640625 19.148438 L 18.640625 16.679688 L 15.410156 16.679688 L 15.183594 14.152344 L 18.640625 14.152344 L 18.640625 11.683594 Z M 18.640625 23.082031 L 18.628906 23.085938 L 15.910156 22.34375 L 15.738281 20.375 L 13.285156 20.375 L 13.625 24.25 L 18.628906 25.648438 L 18.640625 25.644531 Z M 18.640625 23.082031 " fill-opacity="1" fill-rule="nonzero"/><path fill="#ffffff" d="M 18.632812 19.148438 L 21.640625 19.148438 L 21.363281 22.351562 L 18.640625 23.09375 L 18.640625 25.660156 L 23.648438 24.257812 L 24.316406 16.679688 L 18.640625 16.679688 Z M 24.691406 12.34375 L 24.75 11.683594 L 18.632812 11.683594 L 18.632812 14.152344 L 24.53125 14.152344 L 24.578125 13.597656 Z M 24.691406 12.34375 " fill-opacity="1" fill-rule="nonzero"/></svg>