<svg xmlns="http://www.w3.org/2000/svg" xmlns:xlink="http://www.w3.org/1999/xlink" width="50" zoomAndPan="magnify" viewBox="0 0 37.5 37.499999" height="50" preserveAspectRatio="xMidYMid meet" version="1.0"><defs><clipPath id="d11e96e2a5"><path d="M 0 0 L 37.007812 0 L 37.007812 37.007812 L 0 37.007812 Z M 0 0 " clip-rule="nonzero"/></clipPath><clipPath id="bdad622f73"><path d="M 6.636719 6.636719 L 30.636719 6.636719 L 30.636719 30.636719 L 6.636719 30.636719 Z M 6.636719 6.636719 " clip-rule="nonzero"/></clipPath></defs><g clip-path="url(#d11e96e2a5)"><path fill="#ffffff" d="M 0 0 L 37.5 0 L 37.5 45 L 0 45 Z M 0 0 " fill-opacity="1" fill-rule="nonzero"/><path fill="#ffffff" d="M 0 0 L 37.5 0 L 37.5 37.5 L 0 37.5 Z M 0 0 " fill-opacity="1" fill-rule="nonzero"/><path fill="#545454" d="M 0 0 L 37.5 0 L 37.5 37.5 L 0 37.5 Z M 0 0 " fill-opacity="1" fill-rule="nonzero"/></g><g clip-path="url(#bdad622f73)"><path fill="#f7df1e" d="M 6.636719 6.636719 L 30.636719 6.636719 L 30.636719 30.636719 L 6.636719 30.636719 Z M 6.636719 6.636719 " fill-opacity="1" fill-rule="nonzero"/></g><path fill="#000000" d="M 12.949219 26.695312 L 14.785156 25.582031 C 15.140625 26.210938 15.460938 26.742188 16.234375 26.742188 C 16.976562 26.742188 17.441406 26.453125 17.441406 25.324219 L 17.441406 17.65625 L 19.699219 17.65625 L 19.699219 25.355469 C 19.699219 27.691406 18.328125 28.757812 16.332031 28.757812 C 14.527344 28.757812 13.480469 27.820312 12.949219 26.695312 " fill-opacity="1" fill-rule="nonzero"/><path fill="#000000" d="M 20.921875 26.453125 L 22.757812 25.386719 C 23.242188 26.179688 23.871094 26.757812 24.984375 26.757812 C 25.917969 26.757812 26.511719 26.292969 26.511719 25.644531 C 26.511719 24.871094 25.902344 24.597656 24.871094 24.148438 L 24.304688 23.90625 C 22.679688 23.214844 21.601562 22.34375 21.601562 20.507812 C 21.601562 18.816406 22.886719 17.527344 24.902344 17.527344 C 26.335938 17.527344 27.367188 18.027344 28.109375 19.332031 L 26.351562 20.460938 C 25.964844 19.765625 25.546875 19.492188 24.902344 19.492188 C 24.242188 19.492188 23.824219 19.910156 23.824219 20.460938 C 23.824219 21.136719 24.242188 21.410156 25.207031 21.828125 L 25.773438 22.070312 C 27.6875 22.890625 28.769531 23.730469 28.769531 25.613281 C 28.769531 27.644531 27.175781 28.757812 25.03125 28.757812 C 22.9375 28.757812 21.585938 27.757812 20.921875 26.453125 " fill-opacity="1" fill-rule="nonzero"/></svg>