<svg xmlns="http://www.w3.org/2000/svg" xmlns:xlink="http://www.w3.org/1999/xlink" width="50" zoomAndPan="magnify" viewBox="0 0 37.5 37.499999" height="50" preserveAspectRatio="xMidYMid meet" version="1.0"><defs><clipPath id="a32ee049b8"><path d="M 0 0 L 37.007812 0 L 37.007812 37.007812 L 0 37.007812 Z M 0 0 " clip-rule="nonzero"/></clipPath><clipPath id="dfd819564b"><path d="M 7.5 8.339844 L 30 8.339844 L 30 29 L 7.5 29 Z M 7.5 8.339844 " clip-rule="nonzero"/></clipPath></defs><g clip-path="url(#a32ee049b8)"><path fill="#ffffff" d="M 0 0 L 37.5 0 L 37.5 45 L 0 45 Z M 0 0 " fill-opacity="1" fill-rule="nonzero"/><path fill="#ffffff" d="M 0 0 L 37.5 0 L 37.5 37.5 L 0 37.5 Z M 0 0 " fill-opacity="1" fill-rule="nonzero"/><path fill="#545454" d="M 0 0 L 37.5 0 L 37.5 37.5 L 0 37.5 Z M 0 0 " fill-opacity="1" fill-rule="nonzero"/></g><g clip-path="url(#dfd819564b)"><path fill="#00d8ff" d="M 25.980469 15.292969 C 25.75 15.210938 25.507812 15.136719 25.257812 15.0625 C 25.300781 14.894531 25.335938 14.730469 25.371094 14.566406 C 25.917969 11.886719 25.558594 9.730469 24.339844 9.019531 C 23.167969 8.339844 21.253906 9.046875 19.320312 10.746094 C 19.132812 10.910156 18.945312 11.082031 18.761719 11.265625 C 18.636719 11.144531 18.511719 11.027344 18.390625 10.917969 C 16.363281 9.101562 14.332031 8.335938 13.109375 9.050781 C 11.941406 9.734375 11.59375 11.761719 12.085938 14.300781 C 12.132812 14.542969 12.191406 14.796875 12.253906 15.050781 C 11.964844 15.132812 11.6875 15.21875 11.421875 15.3125 C 9.046875 16.148438 7.527344 17.460938 7.527344 18.816406 C 7.527344 20.222656 9.15625 21.628906 11.632812 22.484375 C 11.828125 22.550781 12.03125 22.613281 12.238281 22.675781 C 12.171875 22.949219 12.113281 23.21875 12.0625 23.484375 C 11.59375 25.976562 11.960938 27.957031 13.125 28.636719 C 14.332031 29.335938 16.355469 28.617188 18.324219 26.878906 C 18.480469 26.742188 18.636719 26.597656 18.792969 26.445312 C 18.996094 26.640625 19.195312 26.828125 19.398438 27.003906 C 21.304688 28.660156 23.191406 29.328125 24.355469 28.648438 C 25.558594 27.945312 25.949219 25.816406 25.441406 23.226562 C 25.402344 23.03125 25.359375 22.828125 25.308594 22.621094 C 25.449219 22.582031 25.589844 22.535156 25.726562 22.492188 C 28.296875 21.628906 29.972656 20.242188 29.972656 18.816406 C 29.972656 17.453125 28.40625 16.136719 25.980469 15.292969 Z M 25.421875 21.574219 C 25.300781 21.613281 25.175781 21.652344 25.046875 21.691406 C 24.761719 20.785156 24.378906 19.820312 23.910156 18.824219 C 24.355469 17.851562 24.726562 16.898438 25 15.996094 C 25.230469 16.0625 25.453125 16.132812 25.667969 16.207031 C 27.746094 16.929688 29.011719 17.996094 29.011719 18.816406 C 29.011719 19.691406 27.644531 20.828125 25.421875 21.574219 Z M 24.5 23.414062 C 24.726562 24.558594 24.757812 25.59375 24.609375 26.40625 C 24.476562 27.132812 24.207031 27.617188 23.875 27.808594 C 23.167969 28.222656 21.65625 27.6875 20.023438 26.269531 C 19.835938 26.105469 19.648438 25.933594 19.460938 25.75 C 20.089844 25.054688 20.722656 24.242188 21.339844 23.339844 C 22.425781 23.242188 23.449219 23.085938 24.378906 22.867188 C 24.425781 23.054688 24.464844 23.238281 24.5 23.414062 Z M 15.179688 27.738281 C 14.488281 27.984375 13.9375 27.992188 13.605469 27.796875 C 12.898438 27.386719 12.605469 25.796875 13.003906 23.664062 C 13.050781 23.417969 13.105469 23.167969 13.167969 22.910156 C 14.089844 23.117188 15.105469 23.265625 16.195312 23.351562 C 16.816406 24.234375 17.464844 25.042969 18.121094 25.753906 C 17.976562 25.894531 17.835938 26.027344 17.691406 26.152344 C 16.820312 26.921875 15.949219 27.464844 15.179688 27.738281 Z M 11.941406 21.566406 C 10.847656 21.191406 9.945312 20.699219 9.324219 20.164062 C 8.769531 19.683594 8.488281 19.207031 8.488281 18.816406 C 8.488281 17.992188 9.707031 16.941406 11.738281 16.226562 C 11.984375 16.140625 12.242188 16.058594 12.511719 15.980469 C 12.792969 16.902344 13.160156 17.867188 13.605469 18.839844 C 13.152344 19.832031 12.78125 20.808594 12.496094 21.742188 C 12.304688 21.6875 12.121094 21.628906 11.941406 21.566406 Z M 13.027344 14.113281 C 12.605469 11.9375 12.886719 10.296875 13.589844 9.886719 C 14.34375 9.449219 16.003906 10.074219 17.75 11.640625 C 17.863281 11.742188 17.976562 11.847656 18.089844 11.953125 C 17.4375 12.660156 16.792969 13.464844 16.175781 14.34375 C 15.121094 14.441406 14.109375 14.597656 13.183594 14.8125 C 13.125 14.574219 13.070312 14.339844 13.027344 14.113281 Z M 22.707031 16.527344 C 22.488281 16.140625 22.257812 15.761719 22.027344 15.394531 C 22.742188 15.484375 23.429688 15.605469 24.074219 15.753906 C 23.878906 16.378906 23.636719 17.035156 23.355469 17.703125 C 23.152344 17.3125 22.933594 16.921875 22.707031 16.527344 Z M 18.761719 12.644531 C 19.203125 13.128906 19.644531 13.667969 20.082031 14.253906 C 19.640625 14.234375 19.199219 14.222656 18.75 14.222656 C 18.304688 14.222656 17.867188 14.234375 17.429688 14.253906 C 17.863281 13.675781 18.3125 13.136719 18.761719 12.644531 Z M 14.789062 16.53125 C 14.566406 16.921875 14.355469 17.3125 14.152344 17.703125 C 13.875 17.035156 13.636719 16.378906 13.441406 15.742188 C 14.082031 15.597656 14.765625 15.480469 15.476562 15.390625 C 15.238281 15.761719 15.011719 16.144531 14.789062 16.53125 Z M 15.496094 22.3125 C 14.761719 22.230469 14.066406 22.117188 13.425781 21.976562 C 13.625 21.332031 13.871094 20.660156 14.15625 19.980469 C 14.355469 20.371094 14.566406 20.761719 14.792969 21.152344 C 15.019531 21.546875 15.253906 21.933594 15.496094 22.3125 Z M 18.785156 25.058594 C 18.332031 24.5625 17.878906 24.015625 17.4375 23.429688 C 17.867188 23.445312 18.304688 23.453125 18.75 23.453125 C 19.207031 23.453125 19.660156 23.441406 20.105469 23.421875 C 19.667969 24.023438 19.226562 24.570312 18.785156 25.058594 Z M 23.363281 19.945312 C 23.664062 20.632812 23.917969 21.300781 24.117188 21.9375 C 23.464844 22.085938 22.761719 22.207031 22.023438 22.296875 C 22.257812 21.925781 22.488281 21.539062 22.710938 21.144531 C 22.941406 20.742188 23.15625 20.34375 23.363281 19.945312 Z M 21.882812 20.660156 C 21.53125 21.273438 21.171875 21.859375 20.804688 22.414062 C 20.140625 22.460938 19.453125 22.484375 18.75 22.484375 C 18.050781 22.484375 17.371094 22.464844 16.71875 22.421875 C 16.335938 21.859375 15.96875 21.273438 15.621094 20.667969 C 15.273438 20.058594 14.953125 19.449219 14.664062 18.839844 C 14.953125 18.234375 15.273438 17.621094 15.617188 17.015625 C 15.964844 16.410156 16.328125 15.824219 16.707031 15.269531 C 17.375 15.21875 18.058594 15.191406 18.75 15.191406 C 19.445312 15.191406 20.128906 15.21875 20.796875 15.269531 C 21.167969 15.820312 21.53125 16.402344 21.878906 17.011719 C 22.230469 17.625 22.554688 18.230469 22.847656 18.828125 C 22.554688 19.433594 22.230469 20.046875 21.882812 20.660156 Z M 23.859375 9.859375 C 24.613281 10.292969 24.902344 12.058594 24.429688 14.371094 C 24.402344 14.519531 24.367188 14.667969 24.332031 14.820312 C 23.398438 14.605469 22.386719 14.441406 21.332031 14.34375 C 20.714844 13.457031 20.074219 12.652344 19.433594 11.953125 C 19.605469 11.785156 19.777344 11.625 19.949219 11.476562 C 21.605469 10.019531 23.15625 9.445312 23.859375 9.859375 Z M 18.75 16.796875 C 19.855469 16.796875 20.753906 17.699219 20.753906 18.816406 C 20.753906 19.933594 19.855469 20.839844 18.75 20.839844 C 17.644531 20.839844 16.746094 19.933594 16.746094 18.816406 C 16.746094 17.699219 17.644531 16.796875 18.75 16.796875 Z M 18.75 16.796875 " fill-opacity="1" fill-rule="nonzero"/></g></svg>