<svg xmlns="http://www.w3.org/2000/svg" xmlns:xlink="http://www.w3.org/1999/xlink" width="500" zoomAndPan="magnify" viewBox="0 0 375 374.999991" height="500" preserveAspectRatio="xMidYMid meet" version="1.0"><defs><clipPath id="72caa20e81"><path d="M 76.441406 88 L 298.441406 88 L 298.441406 287 L 76.441406 287 Z M 76.441406 88 " clip-rule="nonzero"/></clipPath></defs><rect x="-37.5" width="450" fill="#ffffff" y="-37.499999" height="449.999989" fill-opacity="1"/><rect x="-37.5" width="450" fill="#ffffff" y="-37.499999" height="449.999989" fill-opacity="1"/><rect x="-37.5" width="450" fill="#20232a" y="-37.499999" height="449.999989" fill-opacity="1"/><g clip-path="url(#72caa20e81)"><path fill="#00d8ff" d="M 258.824219 152.78125 C 256.527344 151.988281 254.148438 151.242188 251.691406 150.53125 C 252.097656 148.886719 252.46875 147.261719 252.800781 145.667969 C 258.191406 119.457031 254.667969 98.339844 242.613281 91.386719 C 231.050781 84.71875 212.152344 91.671875 193.058594 108.289062 C 191.226562 109.886719 189.382812 111.578125 187.546875 113.351562 C 186.316406 112.175781 185.097656 111.042969 183.878906 109.960938 C 163.871094 92.191406 143.816406 84.703125 131.773438 91.675781 C 120.226562 98.363281 116.808594 118.214844 121.667969 143.054688 C 122.136719 145.453125 122.683594 147.90625 123.304688 150.394531 C 120.46875 151.203125 117.726562 152.0625 115.105469 152.976562 C 91.648438 161.15625 76.671875 173.972656 76.671875 187.273438 C 76.671875 201 92.75 214.78125 117.183594 223.136719 C 119.109375 223.792969 121.109375 224.417969 123.171875 225.003906 C 122.503906 227.699219 121.921875 230.335938 121.433594 232.917969 C 116.796875 257.328125 120.417969 276.710938 131.933594 283.347656 C 143.828125 290.214844 163.792969 283.160156 183.230469 266.167969 C 184.769531 264.824219 186.308594 263.394531 187.851562 261.90625 C 189.859375 263.828125 191.855469 265.65625 193.839844 267.371094 C 212.671875 283.574219 231.269531 290.117188 242.769531 283.460938 C 254.652344 276.578125 258.519531 255.753906 253.5 230.425781 C 253.121094 228.484375 252.667969 226.511719 252.175781 224.503906 C 253.578125 224.089844 254.953125 223.65625 256.296875 223.214844 C 281.695312 214.792969 298.214844 201.191406 298.214844 187.273438 C 298.214844 173.925781 282.75 161.019531 258.824219 152.78125 Z M 253.320312 214.230469 C 252.105469 214.625 250.859375 215.015625 249.597656 215.386719 C 246.792969 206.515625 243.011719 197.070312 238.371094 187.316406 C 242.796875 177.792969 246.429688 168.476562 249.15625 159.652344 C 251.421875 160.308594 253.621094 161.003906 255.742188 161.730469 C 276.242188 168.792969 288.75 179.230469 288.75 187.273438 C 288.75 195.832031 275.25 206.957031 253.320312 214.230469 Z M 244.214844 232.257812 C 246.4375 243.460938 246.75 253.589844 245.277344 261.507812 C 243.964844 268.625 241.304688 273.367188 238.027344 275.265625 C 231.042969 279.304688 216.113281 274.050781 200.019531 260.195312 C 198.164062 258.601562 196.304688 256.902344 194.445312 255.113281 C 200.683594 248.28125 206.921875 240.34375 213.015625 231.523438 C 223.722656 230.582031 233.839844 229.023438 243.019531 226.902344 C 243.46875 228.726562 243.867188 230.511719 244.214844 232.257812 Z M 152.203125 274.5625 C 145.382812 276.976562 139.949219 277.046875 136.664062 275.152344 C 129.675781 271.117188 126.773438 255.554688 130.734375 234.683594 C 131.1875 232.292969 131.730469 229.835938 132.351562 227.324219 C 141.425781 229.332031 151.472656 230.78125 162.207031 231.644531 C 168.339844 240.273438 174.757812 248.203125 181.222656 255.148438 C 179.8125 256.515625 178.402344 257.8125 177 259.035156 C 168.40625 266.554688 159.796875 271.886719 152.203125 274.5625 Z M 120.246094 214.175781 C 109.445312 210.480469 100.523438 205.683594 94.40625 200.4375 C 88.910156 195.738281 86.136719 191.0625 86.136719 187.273438 C 86.136719 179.207031 98.164062 168.910156 118.222656 161.914062 C 120.660156 161.066406 123.207031 160.265625 125.851562 159.515625 C 128.621094 168.535156 132.257812 177.96875 136.648438 187.496094 C 132.203125 197.175781 128.515625 206.757812 125.714844 215.890625 C 123.828125 215.34375 122.003906 214.773438 120.246094 214.175781 Z M 130.957031 141.238281 C 126.796875 119.953125 129.558594 103.898438 136.519531 99.867188 C 143.929688 95.578125 160.320312 101.695312 177.589844 117.039062 C 178.699219 118.019531 179.804688 119.046875 180.921875 120.105469 C 174.484375 127.019531 168.121094 134.890625 162.046875 143.46875 C 151.625 144.433594 141.652344 145.984375 132.480469 148.0625 C 131.90625 145.746094 131.394531 143.464844 130.957031 141.238281 Z M 226.515625 164.839844 C 224.328125 161.054688 222.078125 157.355469 219.785156 153.757812 C 226.855469 154.652344 233.621094 155.839844 239.984375 157.289062 C 238.078125 163.410156 235.699219 169.8125 232.894531 176.375 C 230.886719 172.554688 228.757812 168.707031 226.515625 164.839844 Z M 187.546875 126.871094 C 191.917969 131.605469 196.289062 136.882812 200.589844 142.613281 C 196.253906 142.410156 191.867188 142.304688 187.445312 142.304688 C 183.066406 142.304688 178.710938 142.410156 174.402344 142.609375 C 178.703125 136.933594 183.117188 131.65625 187.546875 126.871094 Z M 148.328125 164.90625 C 146.140625 168.703125 144.054688 172.53125 142.074219 176.367188 C 139.320312 169.828125 136.960938 163.398438 135.035156 157.191406 C 141.355469 155.773438 148.097656 154.617188 155.121094 153.742188 C 152.792969 157.371094 150.523438 161.097656 148.328125 164.90625 Z M 155.324219 221.472656 C 148.066406 220.667969 141.222656 219.570312 134.90625 218.191406 C 136.863281 211.875 139.269531 205.3125 142.085938 198.628906 C 144.070312 202.464844 146.164062 206.289062 148.367188 210.097656 C 150.609375 213.976562 152.9375 217.769531 155.324219 221.472656 Z M 187.808594 248.335938 C 183.324219 243.496094 178.851562 238.136719 174.480469 232.378906 C 178.722656 232.546875 183.046875 232.632812 187.445312 232.632812 C 191.960938 232.632812 196.425781 232.527344 200.816406 232.335938 C 196.503906 238.199219 192.144531 243.566406 187.808594 248.335938 Z M 232.980469 198.292969 C 235.941406 205.042969 238.441406 211.570312 240.425781 217.785156 C 234.003906 219.25 227.0625 220.425781 219.757812 221.308594 C 222.0625 217.664062 224.328125 213.898438 226.5625 210.03125 C 228.820312 206.117188 230.957031 202.195312 232.980469 198.292969 Z M 218.355469 205.304688 C 214.894531 211.3125 211.339844 217.042969 207.730469 222.453125 C 201.160156 222.917969 194.367188 223.160156 187.445312 223.160156 C 180.546875 223.160156 173.839844 222.953125 167.382812 222.53125 C 163.628906 217.050781 159.996094 211.304688 156.554688 205.355469 L 156.558594 205.355469 C 153.125 199.425781 149.964844 193.445312 147.105469 187.496094 C 149.964844 181.542969 153.117188 175.550781 156.527344 169.632812 L 156.527344 169.636719 C 159.949219 163.699219 163.550781 157.976562 167.269531 152.527344 C 173.855469 152.03125 180.617188 151.769531 187.445312 151.769531 C 194.308594 151.769531 201.066406 152.035156 207.652344 152.535156 C 211.320312 157.945312 214.894531 163.648438 218.332031 169.582031 C 221.800781 175.585938 224.996094 181.535156 227.875 187.367188 C 225.003906 193.296875 221.816406 199.304688 218.355469 205.304688 Z M 237.878906 99.585938 C 245.304688 103.863281 248.1875 121.121094 243.523438 143.753906 C 243.230469 145.199219 242.890625 146.667969 242.527344 148.160156 C 233.335938 146.039062 223.359375 144.460938 212.914062 143.480469 C 206.820312 134.808594 200.511719 126.925781 194.175781 120.101562 C 195.882812 118.460938 197.585938 116.898438 199.273438 115.425781 C 215.628906 101.1875 230.921875 95.566406 237.878906 99.585938 Z M 187.445312 167.480469 C 198.367188 167.480469 207.226562 176.335938 207.226562 187.269531 C 207.226562 198.195312 198.367188 207.058594 187.445312 207.058594 C 176.523438 207.058594 167.660156 198.195312 167.660156 187.269531 C 167.660156 176.335938 176.523438 167.480469 187.445312 167.480469 Z M 187.445312 167.480469 " fill-opacity="1" fill-rule="nonzero"/></g></svg>