<svg xmlns="http://www.w3.org/2000/svg" xmlns:xlink="http://www.w3.org/1999/xlink" width="500" zoomAndPan="magnify" viewBox="0 0 375 374.999991" height="500" preserveAspectRatio="xMidYMid meet" version="1.0"><rect x="-37.5" width="450" fill="#ffffff" y="-37.499999" height="449.999989" fill-opacity="1"/><rect x="-37.5" width="450" fill="#ffffff" y="-37.499999" height="449.999989" fill-opacity="1"/><rect x="-37.5" width="450" fill="#ffffff" y="-37.499999" height="449.999989" fill-opacity="1"/><path fill="#000000" d="M 187.609375 84.796875 C 130.824219 84.796875 84.796875 130.824219 84.796875 187.609375 C 84.796875 244.390625 130.824219 290.417969 187.609375 290.417969 C 244.390625 290.417969 290.417969 244.390625 290.417969 187.609375 C 290.417969 130.824219 244.390625 84.796875 187.609375 84.796875 Z M 225.183594 207.121094 C 220.535156 218.164062 211.917969 228.28125 195.96875 228.28125 C 195.96875 228.28125 189.203125 181.152344 189.101562 180.070312 C 188.683594 181.207031 179.136719 205.984375 179.136719 205.984375 C 174.644531 217.441406 166.078125 228.226562 150.128906 228.28125 L 137.636719 152.09375 C 148.011719 152.09375 160.816406 160.609375 161.746094 174.648438 C 161.746094 174.648438 163.34375 202.574219 163.398438 204.796875 C 164.273438 202.421875 175.113281 174.339844 175.113281 174.339844 C 179.402344 162.832031 187.503906 152.046875 202.730469 152.046875 C 202.730469 152.046875 209.234375 202.320312 209.492188 204.691406 C 210.164062 202.320312 219.09375 174.339844 219.09375 174.339844 C 223.378906 162.832031 231.6875 152.046875 247.480469 152.046875 Z M 225.183594 207.121094 " fill-opacity="1" fill-rule="nonzero"/></svg>