<svg xmlns="http://www.w3.org/2000/svg" xmlns:xlink="http://www.w3.org/1999/xlink" width="50" zoomAndPan="magnify" viewBox="0 0 37.5 37.499999" height="50" preserveAspectRatio="xMidYMid meet" version="1.0"><defs><clipPath id="f6675a75db"><path d="M 0 0 L 37.007812 0 L 37.007812 37.007812 L 0 37.007812 Z M 0 0 " clip-rule="nonzero"/></clipPath></defs><g clip-path="url(#f6675a75db)"><path fill="#ffffff" d="M 0 0 L 37.5 0 L 37.5 45 L 0 45 Z M 0 0 " fill-opacity="1" fill-rule="nonzero"/><path fill="#ffffff" d="M 0 0 L 37.5 0 L 37.5 37.5 L 0 37.5 Z M 0 0 " fill-opacity="1" fill-rule="nonzero"/><path fill="#545454" d="M 0 0 L 37.5 0 L 37.5 37.5 L 0 37.5 Z M 0 0 " fill-opacity="1" fill-rule="nonzero"/></g><path fill="#ffffff" d="M 18.675781 8.671875 C 13.148438 8.671875 8.671875 13.148438 8.671875 18.675781 C 8.671875 24.199219 13.148438 28.679688 18.675781 28.679688 C 24.199219 28.679688 28.679688 24.199219 28.679688 18.675781 C 28.679688 13.148438 24.199219 8.671875 18.675781 8.671875 Z M 22.332031 20.574219 C 21.878906 21.648438 21.039062 22.632812 19.488281 22.632812 C 19.488281 22.632812 18.832031 18.046875 18.820312 17.941406 C 18.78125 18.050781 17.851562 20.464844 17.851562 20.464844 C 17.414062 21.578125 16.578125 22.628906 15.027344 22.632812 L 13.8125 15.21875 C 14.820312 15.21875 16.066406 16.046875 16.15625 17.414062 C 16.15625 17.414062 16.3125 20.132812 16.320312 20.347656 C 16.40625 20.117188 17.460938 17.382812 17.460938 17.382812 C 17.875 16.265625 18.664062 15.214844 20.148438 15.214844 C 20.148438 15.214844 20.78125 20.105469 20.804688 20.335938 C 20.871094 20.105469 21.738281 17.382812 21.738281 17.382812 C 22.15625 16.265625 22.964844 15.214844 24.5 15.214844 Z M 22.332031 20.574219 " fill-opacity="1" fill-rule="nonzero"/></svg>